<svg width="20" height="20" viewBox="0 0 20 20" fill="none" xmlns="http://www.w3.org/2000/svg">
<g clip-path="url(#clip0_4081_10677)">
<rect width="19.9999" height="20" fill="#213147"/>
<path d="M3.99316 7.12466V12.8741C3.99316 13.2412 4.1893 13.5807 4.50703 13.7636L9.48623 16.6389C9.80396 16.8219 10.1952 16.8219 10.5129 16.6389L15.4921 13.7636C15.8098 13.5807 16.006 13.2412 16.006 12.8741V7.12466C16.006 6.75759 15.8098 6.41812 15.4921 6.23519L10.5129 3.35986C10.1952 3.17692 9.80396 3.17692 9.48623 3.35986L4.50583 6.23519C4.1881 6.41812 3.99316 6.75759 3.99316 7.12466Z" fill="#213147"/>
<path d="M11.0859 11.1155L10.3757 13.0628C10.3565 13.1169 10.3565 13.176 10.3757 13.2301L11.5973 16.5808L13.0103 15.7648L11.3144 11.1155C11.2759 11.0084 11.1243 11.0084 11.0857 11.1155H11.0859Z" fill="#12AAFF"/>
<path d="M12.5098 7.84007C12.4713 7.733 12.3197 7.733 12.2812 7.84007L11.571 9.7874C11.5518 9.84153 11.5518 9.9006 11.571 9.95473L13.5725 15.4406L14.9854 14.6246L12.5097 7.84007H12.5098Z" fill="#12AAFF"/>
<path d="M9.9992 3.57566C10.0341 3.57566 10.0691 3.58526 10.1003 3.60219L15.4887 6.71339C15.5512 6.74953 15.5897 6.81686 15.5897 6.88793V13.1091C15.5897 13.1814 15.5512 13.2475 15.4887 13.2837L10.1003 16.3949C10.0701 16.4129 10.0341 16.4214 9.9992 16.4214C9.96427 16.4214 9.92933 16.4118 9.89813 16.3949L4.50973 13.2861C4.4472 13.2499 4.40867 13.1826 4.40867 13.1115V6.88913C4.40867 6.81686 4.4472 6.75073 4.50973 6.71459L9.89813 3.60339C9.92947 3.58539 9.96427 3.57566 9.9992 3.57566ZM9.9992 2.66699C9.80787 2.66699 9.6152 2.71633 9.4432 2.81619L4.056 5.92619C3.71173 6.12473 3.5 6.49193 3.5 6.88899V13.1102C3.5 13.5074 3.71187 13.8745 4.056 14.073L9.4444 17.1842C9.61653 17.2829 9.80787 17.3334 10.0004 17.3334C10.1929 17.3334 10.3844 17.2841 10.5564 17.1842L15.9448 14.073C16.2891 13.8745 16.5008 13.5073 16.5008 13.1102V6.88899C16.5008 6.49179 16.2889 6.12473 15.9448 5.92619L10.5552 2.81619C10.3831 2.71633 10.1905 2.66699 9.9992 2.66699Z" fill="#9DCCED"/>
<path d="M6.43555 15.4474L6.93141 14.0898L7.92915 14.919L6.99635 15.7712L6.43555 15.4474Z" fill="#213147"/>
<path d="M9.54442 6.44238H8.17842C8.07615 6.44238 7.98468 6.50612 7.94975 6.60252L5.02148 14.6302L6.43442 15.4462L9.65882 6.60612C9.68895 6.52665 9.62988 6.44238 9.54442 6.44238Z" fill="white"/>
<path d="M11.9342 6.44238H10.5682C10.466 6.44238 10.3745 6.50612 10.3396 6.60252L6.99609 15.7689L8.40903 16.5849L12.0486 6.60612C12.0776 6.52665 12.0185 6.44238 11.9342 6.44238Z" fill="white"/>
</g>
<defs>
<clipPath id="clip0_4081_10677">
<rect width="19.9999" height="20" fill="white"/>
</clipPath>
</defs>
</svg>
