<svg width="20" height="20" viewBox="0 0 20 20" fill="none" xmlns="http://www.w3.org/2000/svg">
<g clip-path="url(#clip0_4647_3861)">
<rect width="20" height="20" fill="#5DEB5A"/>
<path d="M9.97314 5.07244C10.4355 5.07244 10.8514 5.32937 11.0583 5.74298L14.4704 12.5675C14.6598 12.9464 14.64 13.3875 14.4174 13.7479C14.1947 14.1083 13.809 14.3234 13.3853 14.3234H6.56101C6.13749 14.3234 5.7516 14.1083 5.52908 13.7479C5.30631 13.3875 5.2865 12.9464 5.47611 12.5675L8.88799 5.74298C9.09492 5.32937 9.51076 5.07244 9.97314 5.07244ZM9.97314 4.23828C9.19764 4.23828 8.48873 4.6764 8.14195 5.36996L4.72982 12.1945C4.41249 12.8291 4.4464 13.5828 4.81942 14.1863C5.19244 14.7898 5.85136 15.1573 6.56101 15.1573H13.3855C14.0952 15.1573 14.7541 14.79 15.1271 14.1863C15.5001 13.5828 15.534 12.8291 15.2167 12.1945L11.8043 5.36996C11.4575 4.6764 10.7486 4.23828 9.97314 4.23828Z" fill="white"/>
</g>
<defs>
<clipPath id="clip0_4647_3861">
<rect width="20" height="20" fill="white"/>
</clipPath>
</defs>
</svg>
