<svg width="20" height="20" viewBox="0 0 20 20" fill="none" xmlns="http://www.w3.org/2000/svg">
<g clip-path="url(#clip0_4638_2435)">
<rect width="20" height="20" fill="#E84142"/>
<path d="M16.168 3.43066H3.81934V14.6541H16.168V3.43066Z" fill="white"/>
<path fill-rule="evenodd" clip-rule="evenodd" d="M19.9935 9.9994C19.9935 15.515 15.5194 19.9861 10.0002 19.9861C4.48101 19.9861 0.00683594 15.515 0.00683594 9.9994C0.00683594 4.48389 4.48101 0.0126953 10.0002 0.0126953C15.5194 0.0126953 19.9935 4.48389 19.9935 9.9994ZM7.16835 13.9736H5.22892C4.82139 13.9736 4.62009 13.9736 4.49735 13.8951C4.36477 13.8092 4.28376 13.667 4.27394 13.5099C4.26657 13.3652 4.36724 13.1885 4.56854 12.8352L9.35723 4.40013C9.56099 4.04194 9.66409 3.86284 9.79421 3.7966C9.93414 3.72546 10.1011 3.72546 10.241 3.7966C10.3711 3.86284 10.4742 4.04194 10.678 4.40013L11.6625 6.11747L11.6675 6.12623C11.8876 6.5105 11.9992 6.70537 12.0479 6.90989C12.1019 7.13315 12.1019 7.36867 12.0479 7.59192C11.9988 7.798 11.8883 7.99428 11.6649 8.38436L9.14952 12.8279L9.14302 12.8393C8.92149 13.2267 8.80922 13.4231 8.65362 13.5712C8.48423 13.7332 8.28046 13.8509 8.05706 13.9172C7.85329 13.9736 7.62499 13.9736 7.16835 13.9736ZM12.0661 13.9736H14.845C15.255 13.9736 15.4613 13.9736 15.5841 13.8927C15.7166 13.8068 15.8 13.662 15.8075 13.5051C15.8146 13.3651 15.7161 13.1953 15.5231 12.8625C15.5165 12.8512 15.5098 12.8397 15.503 12.8279L14.111 10.4482L14.0952 10.4214C13.8996 10.0908 13.8008 9.92392 13.674 9.8594C13.5342 9.78824 13.3696 9.78824 13.2297 9.8594C13.102 9.92563 12.9989 10.0998 12.7952 10.4506L11.4081 12.8304L11.4034 12.8386C11.2003 13.1889 11.0988 13.3639 11.1062 13.5075C11.116 13.6646 11.197 13.8092 11.3295 13.8951C11.4499 13.9736 11.6561 13.9736 12.0661 13.9736Z" fill="#E84142"/>
</g>
<defs>
<clipPath id="clip0_4638_2435">
<rect width="20" height="20" fill="white"/>
</clipPath>
</defs>
</svg>
