<svg width="20" height="20" viewBox="0 0 20 20" fill="none" xmlns="http://www.w3.org/2000/svg">
<rect width="19.9999" height="20" fill="#F2B90B"/>
<path d="M6.43264 10.2002L4.97336 11.66L3.5 10.2002L4.97282 8.7274L6.43264 10.2002ZM10.0001 6.63278L12.5135 9.14611L13.9869 7.67386L10.0001 3.7002L6.01338 7.68686L7.48674 9.15911L10.0001 6.63278ZM15.0274 8.7274L13.5676 10.2002L15.0404 11.673L16.5127 10.2002L15.0274 8.7274ZM10.0001 13.7676L7.48674 11.2413L6.01338 12.7141L10.0001 16.7002L13.9869 12.7135L12.5135 11.2413L10.0001 13.7676ZM10.0001 11.6605L11.4729 10.1872L10.0001 8.72795L8.5273 10.2002L10.0001 11.66V11.6605Z" fill="white"/>
</svg>
