<svg width="20" height="20" viewBox="0 0 20 20" fill="none" xmlns="http://www.w3.org/2000/svg">
<g clip-path="url(#clip0_4648_3920)">
<path d="M20 0H0V20H20V0Z" fill="#F2F2F2"/>
<path d="M10.0314 12H4.55469V4H10.0314C11.9114 4 13.4347 5.52333 13.4347 7.40222V8.59667C13.4347 10.4767 11.9114 12 10.0314 12Z" fill="#AEDB01"/>
<path d="M11.4425 16H4.55469V12C4.55469 9.79111 6.3458 8 8.5558 8H11.4425C13.6525 8 15.4436 9.79111 15.4436 12C15.4436 14.2089 13.6525 16 11.4425 16Z" fill="#B0B1AC"/>
<path d="M13.4347 8.53111V8.59778C13.4347 10.4778 11.9114 12 10.0302 12H4.55469C4.55469 10.8956 5.00358 9.89556 5.7258 9.17111C6.45024 8.44667 7.45024 8 8.55691 8H11.4425C12.168 8.00111 12.848 8.19444 13.4347 8.53111Z" fill="#5D6D3C"/>
</g>
<defs>
<clipPath id="clip0_4648_3920">
<rect width="20" height="20" fill="white"/>
</clipPath>
</defs>
</svg>
