<svg width="20" height="20" viewBox="0 0 20 20" fill="none" xmlns="http://www.w3.org/2000/svg">
<rect width="20" height="20" fill="#7B2BF9"/>
<path d="M16.8404 8.5367C16.0382 4.76053 12.3207 2.34742 8.54444 3.15614C7.22048 3.43658 6.01392 4.09529 5.05519 5.04749C4.73561 5.36706 4.44865 5.71272 4.20081 6.08447C4.12907 6.1823 4.06385 6.28665 4.00515 6.39752C2.00943 9.70412 3.07903 14.0086 6.38567 15.9978C9.69231 17.9869 13.9968 16.9239 15.986 13.6173C16.1425 13.3564 16.2795 13.089 16.4034 12.8151C16.4426 12.7303 16.4817 12.639 16.5143 12.5477C17.01 11.2759 17.1208 9.89326 16.8469 8.56279L16.8404 8.5367ZM14.4142 5.34097C14.4534 5.38011 14.4925 5.41924 14.5316 5.45837C15.1382 6.06491 15.6208 6.78884 15.9469 7.58451C15.9665 7.63668 15.9404 7.7019 15.8882 7.72799C15.8686 7.73451 15.8491 7.74103 15.8295 7.73451C15.6273 7.7019 15.4186 7.68234 15.2099 7.68886C15.0534 7.68886 14.9164 7.57799 14.8838 7.42146C14.7729 6.76927 14.5903 6.13012 14.349 5.51054C14.336 5.47793 14.3229 5.44532 14.3099 5.41272C14.2903 5.38011 14.2968 5.34097 14.3229 5.31489C14.349 5.2888 14.3947 5.30836 14.4142 5.34097ZM15.0795 9.44325C15.0795 9.40412 15.1121 9.36499 15.1512 9.36499C15.1773 9.36499 15.1969 9.37803 15.2164 9.3976C15.2686 9.46934 15.3208 9.5476 15.3664 9.61934C15.4316 9.71717 15.4903 9.815 15.549 9.91283C15.5817 9.97152 15.5751 10.0498 15.5295 10.102C15.4577 10.1867 15.373 10.2715 15.2816 10.3563L15.1838 10.4541C15.1577 10.4802 15.1186 10.4737 15.0925 10.4476C15.0795 10.4346 15.0729 10.4215 15.0729 10.402C15.0795 10.2976 15.0795 10.1933 15.0795 10.0824C15.086 9.87369 15.086 9.65847 15.0795 9.44325ZM6.2748 4.76705C7.36397 3.99094 8.66836 3.57354 9.99885 3.58006C10.351 3.58006 10.7032 3.60615 11.0554 3.66485C11.1141 3.67137 11.1532 3.73007 11.1467 3.78876C11.1402 3.81485 11.1271 3.84094 11.1076 3.85398C10.775 4.11486 10.4619 4.50617 10.188 5.00836C10.1228 5.13227 9.97928 5.19097 9.84232 5.15184C8.98794 4.90401 8.09443 4.78661 7.20092 4.80618C6.90743 4.8127 6.62046 4.84531 6.3335 4.89749C6.29436 4.90401 6.25523 4.87792 6.24871 4.83879C6.24219 4.8127 6.25523 4.78661 6.2748 4.76705ZM5.36172 14.3477C5.22476 14.0934 5.40085 13.5064 6.28784 12.6064C6.37263 12.5216 6.37263 12.3781 6.28132 12.2933C6.2748 12.2868 6.26828 12.2868 6.26828 12.2803L6.16392 12.1955C6.07914 12.1237 5.9487 12.1303 5.87044 12.2085L5.83783 12.2411C5.39433 12.6977 5.0878 13.1151 4.91171 13.4933C4.87257 13.5716 4.78779 13.5977 4.70952 13.5651C4.68344 13.552 4.66387 13.539 4.65083 13.5129C3.95298 12.4759 3.58774 11.2498 3.58774 9.99761C3.58774 9.5476 3.6334 9.09759 3.72471 8.66062C3.73123 8.62801 3.77036 8.60192 3.80297 8.60845C3.82254 8.61497 3.8421 8.62801 3.84862 8.6541C3.99863 9.13672 4.22038 9.58673 4.4943 10.0107C4.93127 10.6694 5.45955 11.2629 6.05957 11.7716C6.2748 11.9607 6.50307 12.1368 6.73786 12.3129C7.22701 12.6716 7.74876 12.9912 8.29009 13.2716C8.53792 13.402 8.77271 13.5194 9.02055 13.6303C9.15751 13.689 9.31404 13.6955 9.451 13.6434C9.56839 13.5977 9.68579 13.552 9.80319 13.4999C9.93363 13.4477 9.99885 13.3107 9.96624 13.1738C9.95971 13.1542 9.95971 13.1412 9.95971 13.1346C9.75753 12.2542 9.65318 11.3542 9.64666 10.4476C9.64666 10.4346 9.64666 10.4215 9.64666 10.415C9.64666 10.3628 9.64666 10.3107 9.64666 10.2585C9.64666 10.2389 9.64666 10.2128 9.64666 10.1933V10.1737C9.64666 10.115 9.64666 10.0563 9.64666 9.99109C9.65318 9.82804 9.65318 9.66499 9.66622 9.50195C9.72492 8.34757 9.92058 7.25841 10.2336 6.34535C10.2597 6.26056 10.2206 6.16926 10.1358 6.14317C10.051 6.11708 9.97276 6.09099 9.88797 6.06491C9.80319 6.03882 9.7184 6.08447 9.68579 6.16926C9.34665 7.16058 9.13794 8.34105 9.08577 9.58673C9.07925 9.74326 8.99446 9.88674 8.8575 9.97152C8.15965 10.3824 7.48789 10.8389 6.85525 11.3411C6.73134 11.439 6.56177 11.4324 6.43785 11.3346C5.87696 10.8585 5.38781 10.3107 4.98345 9.6976C4.25299 8.56931 4.07689 7.50624 4.4943 6.71057L4.50082 6.70405C4.553 6.61274 4.61169 6.52796 4.67039 6.44318C5.15302 5.81055 6.04001 5.4388 7.22701 5.39967C7.29875 5.39967 7.37701 5.39315 7.45528 5.39315C8.23139 5.39967 9.00751 5.51707 9.75101 5.73881L9.80319 5.75185L9.84232 5.7649C10.0249 5.81707 10.2075 5.88229 10.3902 5.94751L10.4032 5.95403L10.5467 6.00621L10.5923 6.02577L10.638 6.03882C11.0293 6.18882 11.4206 6.36491 11.7924 6.56057C12.5098 6.93232 13.1816 7.37581 13.7946 7.89104C12.6729 8.15191 11.3685 8.64758 10.051 9.31933C9.99232 9.35194 9.95319 9.41064 9.94667 9.47586C9.94015 9.55412 9.93363 9.72369 9.93363 9.85413C9.93363 9.91283 9.97928 9.965 10.038 9.965C10.0575 9.965 10.0706 9.95848 10.0902 9.95196C11.388 9.26716 12.6859 8.75845 13.8012 8.49105C14.0099 8.43888 14.1468 8.24322 14.1142 8.028C14.0946 7.87799 14.0686 7.73451 14.0425 7.59103C14.0099 7.40842 13.912 7.25189 13.7685 7.14102C13.2272 6.73014 12.6598 6.37143 12.0533 6.05838C11.6424 5.84316 11.225 5.65403 10.7945 5.49098C10.7097 5.45837 10.6706 5.36706 10.7032 5.2888C10.7032 5.28228 10.7097 5.27576 10.7163 5.26923C11.1532 4.49313 11.6685 4.05616 12.1707 4.05616H12.1837C12.7772 4.0692 13.3707 4.68878 13.8077 5.75185C14.0425 6.34535 14.2186 6.96493 14.3229 7.59103C14.3751 7.87799 14.4142 8.178 14.4468 8.48453L14.4403 8.49105L14.4534 8.5041C14.5055 9.03237 14.5251 9.56717 14.5121 10.102C14.5055 10.4476 14.486 10.7868 14.4599 11.1194C13.5664 11.8237 12.6142 12.4498 11.6033 12.9716C11.2511 13.1607 10.8924 13.3368 10.5402 13.4933L10.5271 13.4999L10.4489 13.539C10.1554 13.6694 9.86841 13.7934 9.58796 13.9042L9.54231 13.9238L9.48361 13.9499L9.34013 14.0021L9.30099 14.0151C9.2423 14.0347 9.1836 14.0542 9.13142 14.0803L9.11186 14.0868C8.55097 14.289 7.97703 14.4521 7.39658 14.5695C6.0987 14.7977 5.49868 14.6086 5.36172 14.3477ZM7.12265 11.8629C7.74224 11.3672 8.39444 10.9107 9.07925 10.5063C9.09229 11.3868 9.19012 12.2672 9.37926 13.1346C9.11186 13.0172 8.84446 12.8933 8.57705 12.7564C8.06834 12.489 7.57919 12.1955 7.12265 11.8629ZM10.8337 16.3565C10.5597 16.3891 10.2858 16.4086 10.0054 16.4086C8.77924 16.4152 7.57267 16.063 6.5422 15.3977C6.50307 15.3717 6.49002 15.3195 6.51611 15.2803C6.52916 15.2543 6.55524 15.2412 6.58785 15.2412H6.63351C6.92047 15.2217 7.20744 15.1825 7.48789 15.1238C8.22487 14.9738 8.94229 14.7586 9.64014 14.4912C9.71188 14.4651 9.78362 14.4977 9.80971 14.5695C10.1097 15.2934 10.4684 15.8347 10.8793 16.1869C10.925 16.226 10.925 16.2912 10.8858 16.3304C10.8728 16.3369 10.8532 16.3499 10.8337 16.3565ZM13.5403 14.6412C13.0837 15.5412 12.5163 16.0499 11.975 16.0369C11.3815 16.0238 10.788 15.4108 10.351 14.3412C10.3249 14.276 10.3576 14.1977 10.4228 14.1651L10.4358 14.1586C10.4619 14.1455 10.4945 14.1455 10.5271 14.1521C11.3032 14.3738 12.1054 14.4977 12.9142 14.5042C12.999 14.5042 13.0772 14.5042 13.162 14.4977C13.2598 14.4912 13.3511 14.4912 13.4424 14.4847C13.5011 14.4847 13.5533 14.5303 13.5533 14.589C13.5533 14.6086 13.5468 14.6282 13.5403 14.6412ZM13.7359 13.8651C13.5338 13.8912 13.3316 13.9107 13.1359 13.9173C12.5946 13.9303 12.0533 13.8912 11.5185 13.7868C11.4793 13.7803 11.4532 13.7412 11.4598 13.702C11.4663 13.6825 11.4793 13.6629 11.4989 13.6499C11.6228 13.5912 11.7402 13.526 11.8641 13.4607C12.6794 13.0303 13.462 12.5477 14.212 12.0064C14.2446 11.9803 14.2903 11.9868 14.3099 12.0194C14.3229 12.0324 14.3294 12.0585 14.3229 12.0781C14.2316 12.6325 14.1012 13.1738 13.9251 13.702C13.899 13.7934 13.8272 13.8521 13.7359 13.8651ZM14.6816 14.3738C14.636 14.426 14.5838 14.4782 14.5316 14.5238C14.4468 14.6086 14.3555 14.6934 14.2642 14.7782C14.2316 14.8043 14.186 14.7977 14.1599 14.7716C14.1403 14.7521 14.1403 14.7195 14.1468 14.6934C14.1533 14.6738 14.1664 14.6542 14.1729 14.6347C14.212 14.5499 14.2512 14.4586 14.2838 14.3738C14.2903 14.3542 14.3099 14.3347 14.3294 14.3347C14.4207 14.3151 14.5121 14.289 14.5968 14.2564C14.636 14.2434 14.6751 14.2629 14.6881 14.3021C14.7077 14.3282 14.7012 14.3542 14.6816 14.3738ZM15.973 12.339C15.9404 12.4172 15.9078 12.4955 15.8751 12.5738L15.8621 12.6064C15.6534 13.0107 15.2947 13.3368 14.8186 13.5586C14.7468 13.5912 14.6686 13.5586 14.636 13.4933C14.6229 13.4607 14.6164 13.4281 14.6294 13.402C14.7925 12.8085 14.9099 12.202 14.9816 11.589C14.9947 11.4716 15.0534 11.3607 15.1447 11.2824C15.3403 11.1129 15.523 10.9433 15.6925 10.7802C15.7512 10.7215 15.8491 10.7215 15.9078 10.7802C15.9273 10.7998 15.9404 10.8194 15.9469 10.8455C16.1165 11.3803 16.123 11.8955 15.973 12.339ZM16.1034 9.3389C16.0708 9.40412 15.986 9.42368 15.9273 9.39107C15.9078 9.37803 15.8947 9.36499 15.8817 9.34542C15.8751 9.33238 15.8686 9.31933 15.8556 9.30629C15.6599 9.00628 15.4382 8.7128 15.1969 8.4454C15.1577 8.39974 15.1642 8.33453 15.2034 8.29539C15.2229 8.27583 15.249 8.26931 15.2751 8.26931C15.8491 8.26931 16.1491 8.41279 16.2404 8.58236C16.3186 8.72584 16.2991 8.98019 16.1034 9.3389ZM16.4165 10.1867C16.4165 10.2063 16.3969 10.2259 16.3773 10.2259C16.3643 10.2259 16.3447 10.2128 16.3382 10.1998L16.3186 10.1476C16.3056 10.115 16.3056 10.0824 16.3252 10.0498C16.3317 10.0433 16.3382 10.0302 16.3512 10.0172C16.3773 9.97804 16.4165 9.98457 16.4165 10.0237C16.4165 10.0824 16.4165 10.128 16.4165 10.1867Z" fill="white"/>
</svg>
