<svg width="20" height="20" viewBox="0 0 20 20" fill="none" xmlns="http://www.w3.org/2000/svg">
<g clip-path="url(#clip0_4639_2444)">
<rect width="20" height="20" fill="#FCFF52"/>
<path d="M9.99902 19.999C15.5219 19.999 19.999 15.5219 19.999 9.99902C19.999 4.47618 15.5219 -0.000976562 9.99902 -0.000976562C4.47618 -0.000976562 -0.000976562 4.47618 -0.000976562 9.99902C-0.000976562 15.5219 4.47618 19.999 9.99902 19.999Z" fill="#FCFF52"/>
<path fill-rule="evenodd" clip-rule="evenodd" d="M14.9993 5H5V15H15V11.5092H13.3406C12.7686 12.7829 11.481 13.6695 10.0075 13.6695C7.97633 13.6695 6.33124 12.01 6.33124 9.99325C6.33124 7.97578 7.97633 6.33054 10.0075 6.33054C11.5096 6.33054 12.7972 7.24622 13.3692 8.54763H15V5H14.9993Z" fill="black"/>
</g>
<defs>
<clipPath id="clip0_4639_2444">
<rect width="20" height="20" fill="white"/>
</clipPath>
</defs>
</svg>
