<svg width="20" height="20" viewBox="0 0 20 20" fill="none" xmlns="http://www.w3.org/2000/svg">
<rect width="20" height="20" fill="#061121"/>
<path d="M9.90417 3L3.85547 6.50137V13.5014L9.90417 17L15.9474 13.5014V6.50137L9.90417 3ZM14.158 12.4637L9.90417 14.9247L5.64899 12.4637V7.53627L9.90417 5.07529L14.158 7.53627V12.4637Z" fill="white"/>
<path d="M9.9043 17L15.9475 13.5014V6.50137L9.9043 3V5.07667L14.1581 7.53765V12.4651L9.9043 14.9247V16.9986V17Z" fill="white"/>
<path d="M9.89869 3L3.85547 6.49863V13.4986L9.89869 17V14.9233L5.64489 12.4624V7.5349L9.89869 5.07529V3Z" fill="white"/>
<path d="M12.7241 11.636L9.90102 13.2693L7.0752 11.636V8.36655L9.90102 6.73047L12.7241 8.36655L11.5494 9.04733L9.90102 8.09204L8.25262 9.04733V10.9524L9.90102 11.9077L11.5494 10.9524L12.7241 11.636Z" fill="white"/>
</svg>
