<svg width="20" height="20" viewBox="0 0 20 20" fill="none" xmlns="http://www.w3.org/2000/svg">
<rect width="20" height="20" fill="#ED4E33"/>
<path d="M8.15225 5.32612C5.43921 6.3693 5.19068 9.04086 4.41275 10.2885C3.62559 11.551 1.82226 12.2476 2.06886 12.8911C2.31545 13.5344 4.12094 12.8434 5.54934 13.2539C6.96081 13.6595 8.93019 15.4785 11.6432 14.4353C13.0253 13.9039 14.0261 12.8101 14.4863 11.5146C14.5358 11.3755 14.4433 11.2268 14.2965 11.213C14.2052 11.2045 14.1176 11.2523 14.0765 11.3343C13.6602 12.1648 12.9461 12.8488 12.0115 13.208C10.4687 13.8012 8.78065 13.3354 7.74389 12.1674C7.50843 11.9021 7.30703 11.6002 7.14806 11.2665C7.10435 11.1746 7.06279 11.0813 7.02594 10.9847C6.98888 10.8881 6.95738 10.7909 6.92845 10.6933C7.74389 10.3126 8.68486 9.90935 9.75162 9.49925C10.7976 9.09708 11.7495 8.77089 12.5971 8.50994C13.1704 8.33353 13.696 8.18675 14.1704 8.06678C14.2048 8.05819 14.2386 8.04962 14.2722 8.04125C14.344 8.02344 14.4177 8.06185 14.4443 8.13095L14.4448 8.13223C14.4604 8.17322 14.4739 8.21443 14.4884 8.25563C14.5822 8.52153 14.6526 8.79021 14.699 9.05953C14.7194 9.17735 14.848 9.24152 14.9534 9.18486C15.3429 8.9754 15.6992 8.7711 16.0175 8.57453C17.2039 7.84275 17.8616 7.22212 17.7266 6.87039C17.5919 6.51844 16.6885 6.49827 15.318 6.74935C14.8825 6.82918 14.3995 6.93648 13.8792 7.06932C13.7892 7.09228 13.6981 7.1161 13.606 7.14057C13.168 7.25689 12.7061 7.39014 12.2251 7.5393C11.3306 7.81677 10.371 8.14919 9.38033 8.53011C8.45348 8.88655 7.57506 9.25611 6.76948 9.62436C6.75963 8.06143 7.70297 6.58389 9.24577 5.99073C10.1801 5.63149 11.1678 5.6609 12.0321 5.99932C12.1174 6.0328 12.2144 6.00962 12.2768 5.94203C12.3766 5.83364 12.346 5.6611 12.2163 5.59072C11.0088 4.93684 9.53436 4.79477 8.15225 5.32612Z" fill="white"/>
</svg>
