<svg width="20" height="20" viewBox="0 0 20 20" fill="none" xmlns="http://www.w3.org/2000/svg">
<g clip-path="url(#clip0_4642_2460)">
<rect width="20" height="20" fill="#1969FF"/>
<path d="M10 20C15.5228 20 20 15.5228 20 10C20 4.47715 15.5228 0 10 0C4.47715 0 0 4.47715 0 10C0 15.5228 4.47715 20 10 20Z" fill="#1969FF"/>
<path d="M9.39361 3.18009C9.73051 3.00247 10.2431 3.00247 10.5801 3.18009L14.0179 4.99249C14.2208 5.09945 14.3322 5.25885 14.3522 5.4234H14.3555V14.5334C14.351 14.7129 14.2385 14.8912 14.0179 15.0075L10.5801 16.8199C10.2431 16.9975 9.73051 16.9975 9.39361 16.8199L5.95579 15.0075C5.73608 14.8917 5.63064 14.7121 5.62542 14.5334C5.62489 14.5151 5.62484 14.5 5.62541 14.4875L5.62542 5.48474C5.62491 5.47207 5.6249 5.45947 5.62541 5.44691L5.62542 5.4234H5.62696C5.64223 5.25703 5.74861 5.1017 5.95579 4.99249L9.39361 3.18009ZM13.8086 10.4883L10.579 12.1965C10.2426 12.3744 9.73069 12.3744 9.39428 12.1965L6.17188 10.4921V14.5053L9.39428 16.2006C9.58471 16.3025 9.78271 16.4018 9.97552 16.4061L9.98664 16.4062C10.1791 16.4069 10.3659 16.309 10.5553 16.2164L13.8086 14.4906V10.4883ZM5.0864 14.3359C5.0864 14.6852 5.12663 14.9147 5.20651 15.0764C5.27271 15.2104 5.37204 15.3129 5.55342 15.4375L5.56378 15.4446C5.60358 15.4717 5.64743 15.5 5.7008 15.5334L5.76375 15.5723L5.95703 15.6899L5.67981 16.1523L5.46348 16.0205L5.42711 15.998C5.36456 15.959 5.31272 15.9256 5.26436 15.8927C4.74743 15.5411 4.55464 15.1577 4.55084 14.3602L4.55078 14.3359H5.0864ZM9.72656 8.06641C9.70155 8.07501 9.6781 8.08498 9.65673 8.0963L6.22415 9.91453C6.22055 9.91643 6.21711 9.91832 6.21384 9.92019L6.21094 9.92187L6.21633 9.92497L6.22415 9.92922L9.65673 11.7475C9.6781 11.7588 9.70155 11.7687 9.72656 11.7773V8.06641ZM10.2734 8.06641V11.7773C10.2985 11.7687 10.3219 11.7588 10.3433 11.7475L13.7758 9.92922C13.7794 9.92732 13.7829 9.92543 13.7861 9.92356L13.7891 9.92187L13.7837 9.91878L13.7758 9.91453L10.3433 8.0963C10.3219 8.08498 10.2985 8.07501 10.2734 8.06641ZM13.8086 6.07422L10.7227 7.69531L13.8086 9.31641V6.07422ZM6.17188 6.07422V9.31641L9.25781 7.69531L6.17188 6.07422ZM10.3403 3.66459C10.1616 3.57014 9.83838 3.57014 9.65972 3.66459L6.22416 5.48093C6.22056 5.48285 6.21712 5.48472 6.21385 5.4866L6.21094 5.48828L6.21633 5.49137L6.22416 5.49563L9.65972 7.31196C9.83838 7.40643 10.1616 7.40643 10.3403 7.31196L13.7758 5.49563C13.7794 5.49371 13.7829 5.49184 13.7861 5.48998L13.7891 5.48828L13.7837 5.48519L13.7758 5.48093L10.3403 3.66459ZM14.3202 3.84766L14.5365 3.97948L14.5729 4.002C14.6354 4.04096 14.6873 4.07442 14.7356 4.10732C15.2526 4.45894 15.4454 4.84229 15.4492 5.63977L15.4492 5.66406H14.9136C14.9136 5.31481 14.8734 5.08529 14.7935 4.92357C14.7273 4.78955 14.628 4.68712 14.4466 4.56248L14.4362 4.55541C14.3964 4.52833 14.3526 4.49996 14.2992 4.46663L14.2363 4.42774L14.043 4.31005L14.3202 3.84766Z" fill="white"/>
</g>
<defs>
<clipPath id="clip0_4642_2460">
<rect width="20" height="20" fill="white"/>
</clipPath>
</defs>
</svg>
