<svg width="20" height="20" viewBox="0 0 20 20" fill="none" xmlns="http://www.w3.org/2000/svg">
<rect width="19.9999" height="20" fill="#133629"/>
<path d="M5.52874 9.191C5.52874 8.78778 5.66148 8.42046 5.89105 8.12966L8.32067 10.5585C8.02459 10.788 7.65699 10.9208 7.25905 10.9208C6.29956 10.9208 5.52373 10.1449 5.52874 9.191ZM12.7567 10.9155C13.7111 10.9205 14.487 10.1449 14.487 9.18572C14.487 8.78778 14.3542 8.42046 14.1247 8.12437L11.695 10.5532C11.9858 10.783 12.3534 10.9155 12.7567 10.9155ZM10.0003 11.2319L4.712 5.94574C4.86004 5.75707 5.01838 5.57313 5.18173 5.39977C6.3964 4.12916 8.1064 3.33301 10.0053 3.33301C11.9043 3.33301 13.6193 4.12916 14.829 5.39949C14.9973 5.56785 15.1557 5.75679 15.2884 5.94046L10.0003 11.2319ZM5.90636 5.89983L10.0053 9.99717L14.1043 5.89983C13.0171 4.80286 11.5673 4.20067 10.0053 4.20067C8.44339 4.20067 6.99887 4.80259 5.90636 5.89983ZM10.0003 16.6663C13.6805 16.6663 16.6667 13.6813 16.6667 10.0022C16.677 8.73157 16.3247 7.55279 15.7122 6.54766L14.6353 7.62431C14.9926 8.05285 15.2069 8.59382 15.2069 9.19601C15.2069 10.5482 14.1094 11.6454 12.7567 11.6454C12.1595 11.6454 11.6132 11.4311 11.1844 11.0738L10.0053 12.2526L8.8263 11.0738C8.39748 11.4311 7.85651 11.6454 7.25404 11.6454C5.90135 11.6454 4.80383 10.5484 4.80383 9.19601C4.80383 8.59911 5.0181 8.05313 5.37541 7.62431L4.82443 7.07332L4.29876 6.54766C3.68628 7.55808 3.33398 8.73658 3.33398 10.0022C3.33371 13.6863 6.31988 16.6663 10.0003 16.6663Z" fill="white"/>
</svg>
