<svg width="20" height="20" viewBox="0 0 20 20" fill="none" xmlns="http://www.w3.org/2000/svg">
<rect width="20" height="20" fill="url(#paint0_linear_4817_1204)"/>
<path d="M13.4113 4C12.7259 3.99947 12.0683 4.27166 11.5829 4.75682C11.0974 5.24199 10.8238 5.90048 10.822 6.58776V9.45695C10.5553 9.475 10.2827 9.48637 10 9.48637C9.71733 9.48637 9.446 9.49773 9.178 9.51377V6.58776C9.1671 5.90644 8.88953 5.25673 8.40519 4.77878C7.92084 4.30084 7.26854 4.03297 6.589 4.03297C5.90946 4.03297 5.25716 4.30084 4.77281 4.77878C4.28847 5.25673 4.0109 5.90644 4 6.58776V13.4452C4.0109 14.1265 4.28847 14.7762 4.77281 15.2542C5.25716 15.7321 5.90946 16 6.589 16C7.26854 16 7.92084 15.7321 8.40519 15.2542C8.88953 14.7762 9.1671 14.1265 9.178 13.4452V10.576C9.44467 10.558 9.71733 10.5466 10 10.5466C10.2827 10.5466 10.554 10.5352 10.822 10.5192V13.4452C10.8329 14.1265 11.1105 14.7762 11.5948 15.2542C12.0792 15.7321 12.7315 16 13.411 16C14.0905 16 14.7428 15.7321 15.2272 15.2542C15.7115 14.7762 15.9891 14.1265 16 13.4452V6.58776C15.9982 5.9006 15.7247 5.2422 15.2394 4.75706C14.754 4.27191 14.0966 3.99964 13.4113 4ZM6.58867 5.06024C6.99316 5.06006 7.38121 5.22079 7.66767 5.50716C7.95413 5.79353 8.11561 6.18215 8.11667 6.58776V9.62608C7.35919 9.73615 6.61948 9.94586 5.91667 10.2498C5.61216 10.3838 5.3255 10.5554 5.06333 10.7605V6.58776C5.06439 6.18261 5.2255 5.7944 5.51138 5.5081C5.79727 5.22181 6.18463 5.06077 6.58867 5.06024ZM8.11667 13.4452C8.11667 13.8516 7.95568 14.2413 7.66913 14.5286C7.38257 14.816 6.99392 14.9774 6.58867 14.9774C6.18342 14.9774 5.79476 14.816 5.50821 14.5286C5.22165 14.2413 5.06067 13.8516 5.06067 13.4452V12.7573C5.06067 12.1497 5.54067 11.5741 6.34533 11.2158C6.91232 10.9705 7.50722 10.796 8.11667 10.6963V13.4452ZM13.4113 14.9727C13.0068 14.9729 12.6188 14.8122 12.3323 14.5258C12.0459 14.2394 11.8844 13.8508 11.8833 13.4452V10.4069C12.6408 10.2968 13.3805 10.0871 14.0833 9.78318C14.3878 9.64917 14.6745 9.4776 14.9367 9.27245V13.4452C14.9356 13.8504 14.7745 14.2386 14.4886 14.5249C14.2027 14.8112 13.8154 14.9722 13.4113 14.9727ZM13.6547 8.81319C13.0877 9.05847 12.4928 9.23292 11.8833 9.33261V6.58776C11.8833 6.18139 12.0443 5.79167 12.3309 5.50433C12.6174 5.21699 13.0061 5.05556 13.4113 5.05556C13.8166 5.05556 14.2052 5.21699 14.4918 5.50433C14.7783 5.79167 14.9393 6.18139 14.9393 6.58776V7.27564C14.9393 7.88063 14.4593 8.45621 13.6547 8.81319Z" fill="white"/>
<defs>
<linearGradient id="paint0_linear_4817_1204" x1="1.26333" y1="18.7881" x2="18.7846" y2="1.31488" gradientUnits="userSpaceOnUse">
<stop stop-color="#00AEE9"/>
<stop offset="1" stop-color="#69FABD"/>
</linearGradient>
</defs>
</svg>
