<svg width="20" height="20" viewBox="0 0 20 20" fill="none" xmlns="http://www.w3.org/2000/svg">
<g clip-path="url(#clip0_5510_10142)">
<rect width="20" height="20" fill="#A5FFBE"/>
<path d="M20 0H0V20H20V0Z" fill="#A5FFBE"/>
<path d="M3 7.3499V7H5.13053V7.3499L4.51582 7.42435C4.51116 7.73206 4.5065 8.04473 4.50185 8.36236C4.50185 8.67501 4.50185 8.99017 4.50185 9.30782V9.76198C4.50185 10.025 4.50185 10.3079 4.50185 10.6106C4.5065 10.9134 4.51116 11.2211 4.51582 11.5338H5.92686L6.12245 10.5064H6.61143L6.54157 11.9358H3V11.5858L3.58677 11.5188C3.59608 11.2062 3.60074 10.8985 3.60074 10.5957C3.60074 10.288 3.60074 9.99276 3.60074 9.70985V9.30782C3.60074 8.98526 3.60074 8.66761 3.60074 8.35492C3.60074 8.03728 3.59608 7.72461 3.58677 7.4169L3 7.3499Z" fill="#303B33"/>
<path d="M8.78507 12.04C8.46835 12.04 8.18196 11.9656 7.92584 11.8167C7.67436 11.6678 7.47411 11.452 7.3251 11.1691C7.17607 10.8862 7.10156 10.5486 7.10156 10.1566C7.10156 9.75953 7.1784 9.41952 7.33208 9.13662C7.49041 8.85371 7.69764 8.63789 7.95378 8.48896C8.20991 8.34007 8.48697 8.26562 8.78507 8.26562C9.08309 8.26562 9.36015 8.34007 9.61632 8.48896C9.87242 8.63789 10.0797 8.85371 10.238 9.13662C10.3963 9.41461 10.4755 9.75454 10.4755 10.1566C10.4755 10.5536 10.3986 10.8936 10.245 11.1765C10.096 11.4544 9.89338 11.6678 9.6372 11.8167C9.38578 11.9656 9.10171 12.04 8.78507 12.04ZM8.78507 11.6753C9.03649 11.6753 9.22746 11.5512 9.35781 11.3031C9.49291 11.0549 9.56038 10.6752 9.56038 10.164C9.56038 9.1416 9.30194 8.63041 8.78507 8.63041C8.27277 8.63041 8.01664 9.1416 8.01664 10.164C8.01664 10.6752 8.08184 11.0549 8.21223 11.3031C8.3426 11.5512 8.53357 11.6753 8.78507 11.6753Z" fill="#303B33"/>
<path d="M12.6991 12.04C12.3824 12.04 12.096 11.9656 11.8399 11.8167C11.5884 11.6678 11.3881 11.452 11.2392 11.1691C11.0901 10.8862 11.0156 10.5486 11.0156 10.1566C11.0156 9.75953 11.0924 9.41952 11.2461 9.13662C11.4045 8.85371 11.6117 8.63789 11.8678 8.48896C12.1239 8.34007 12.401 8.26562 12.6991 8.26562C12.9971 8.26562 13.2742 8.34007 13.5303 8.48896C13.7864 8.63789 13.9937 8.85371 14.152 9.13662C14.3103 9.41461 14.3895 9.75454 14.3895 10.1566C14.3895 10.5536 14.3127 10.8936 14.159 11.1765C14.01 11.4544 13.8074 11.6678 13.5513 11.8167C13.2998 11.9656 13.0157 12.04 12.6991 12.04ZM12.6991 11.6753C12.9505 11.6753 13.1415 11.5512 13.2718 11.3031C13.4069 11.0549 13.4744 10.6752 13.4744 10.164C13.4744 9.1416 13.216 8.63041 12.6991 8.63041C12.1868 8.63041 11.9307 9.1416 11.9307 10.164C11.9307 10.6752 11.9958 11.0549 12.1263 11.3031C12.2567 11.5512 12.4476 11.6753 12.6991 11.6753Z" fill="#303B33"/>
<path d="M16.0798 12.0335C15.8004 12.0335 15.5815 11.959 15.4232 11.8101C15.2649 11.6612 15.1857 11.423 15.1857 11.0955C15.1857 10.9813 15.1857 10.8746 15.1857 10.7753C15.1903 10.6711 15.1927 10.5471 15.1927 10.4031V8.81739H14.6758V8.4303L15.2416 8.35585L15.507 7.33594H16.0728L16.0449 8.36329H16.8831V8.81739H16.0379V11.0136C16.0379 11.1972 16.0705 11.3312 16.1357 11.4156C16.2055 11.4999 16.2964 11.5422 16.4081 11.5422C16.5339 11.5422 16.6759 11.4801 16.8342 11.356L17.0019 11.5422C16.9134 11.696 16.7923 11.8176 16.6386 11.907C16.4849 11.9913 16.2987 12.0335 16.0798 12.0335Z" fill="#303B33"/>
</g>
<defs>
<clipPath id="clip0_5510_10142">
<rect width="20" height="20" fill="white"/>
</clipPath>
</defs>
</svg>
