<svg width="20" height="20" viewBox="0 0 20 20" fill="none" xmlns="http://www.w3.org/2000/svg">
<g clip-path="url(#clip0_4644_2661)">
<rect width="20" height="20" fill="black"/>
<path d="M10 20C15.5228 20 20 15.5228 20 10C20 4.47715 15.5228 0 10 0C4.47715 0 0 4.47715 0 10C0 15.5228 4.47715 20 10 20Z" fill="black"/>
<path fill-rule="evenodd" clip-rule="evenodd" d="M10.7982 4.91645L11.1957 2.35741C10.8028 2.29656 10.4006 2.26562 9.99996 2.26562H9.99379V7.48633H9.99996C10.2201 7.48633 10.4377 7.51469 10.6476 7.57035L11.323 5.02629C11.1503 4.98039 10.975 4.9443 10.7987 4.91645H10.7982ZM8.74133 7.82355L7.44195 5.5852H7.44145C7.28828 5.67441 7.13875 5.77082 6.99594 5.875L5.44441 3.74907C5.77082 3.51086 6.11836 3.29687 6.47723 3.11279L7.65801 5.41762C7.89777 5.29543 8.14629 5.1918 8.40203 5.10824L7.59871 2.64615C7.98285 2.52086 8.37988 2.42495 8.77949 2.36153L9.1925 4.96078C9.0177 4.98863 8.84395 5.0268 8.67273 5.0727L9.34512 7.57191C9.13422 7.62863 8.93105 7.71371 8.74133 7.82355ZM3.10353 6.49535L5.4491 7.68953C5.32844 7.92672 5.22586 8.17527 5.14387 8.42844L2.63947 7.6184C2.76373 7.23375 2.91997 6.85578 3.10353 6.49535ZM14.4132 7.43937L12.1754 8.7398C12.2858 8.92953 12.3704 9.1327 12.4271 9.34359L14.9263 8.6702C14.9722 8.84137 15.0104 9.01516 15.0382 9.18941L17.6375 8.77539C17.574 8.37578 17.4781 7.97875 17.3523 7.59461L14.8907 8.39949C14.8072 8.14375 14.7036 7.8952 14.5808 7.65543L16.8852 6.47313C16.7011 6.11422 16.4871 5.76723 16.2484 5.44082L14.123 6.99336C14.2271 7.13621 14.324 7.28574 14.4127 7.43887L14.4132 7.43937ZM13.5004 3.10136L13.5006 3.10146V3.10095L13.5004 3.10136ZM12.377 2.63792C12.7616 2.76216 13.1395 2.91784 13.5004 3.10136L12.3079 5.44754C12.0702 5.32691 11.8217 5.2243 11.5685 5.14281L12.377 2.63792ZM12.5662 5.53937L11.2519 7.82C11.4421 7.9298 11.6175 8.06387 11.7737 8.21961L15.4594 4.52152C15.1737 4.23641 14.8628 3.97188 14.5364 3.7352L13.0164 5.83121C12.8715 5.72602 12.7214 5.62859 12.5662 5.53937ZM7.82098 8.74656L5.54086 7.43117H5.54035C5.63008 7.27648 5.72754 7.12645 5.83273 6.98156L3.73722 5.46047C3.97441 5.13406 4.23891 4.82367 4.52406 4.53801L8.22109 8.22473C8.06539 8.38098 7.93078 8.55629 7.82098 8.74656ZM5.0273 8.67437L7.5709 9.35141H7.57035C7.51469 9.56125 7.48633 9.77938 7.48633 10.0001H2.26562C2.26562 9.5984 2.29708 9.19465 2.35844 8.8002L4.9175 9.19879C4.9448 9.02246 4.98141 8.84711 5.0273 8.67437ZM14.5509 12.3105L16.8964 13.5046C17.08 13.1442 17.2362 12.7663 17.3605 12.3816L14.8561 11.5716C14.7741 11.8248 14.6715 12.0733 14.5509 12.3105ZM11.2586 12.1764L12.558 14.4148L12.5585 14.4153C12.7116 14.3261 12.8612 14.2297 13.004 14.1255L14.5555 16.2514C14.2291 16.4896 13.8816 16.7036 13.5227 16.8877L12.3419 14.5829C12.1021 14.7051 11.8536 14.8087 11.5979 14.8923L12.4012 17.3544C12.0171 17.4796 11.62 17.5755 11.2204 17.639L10.8074 15.0392C10.9822 15.0114 11.156 14.9732 11.3272 14.9273L10.6548 12.4281C10.8657 12.3714 11.0688 12.2863 11.2586 12.1764ZM5.58676 12.5606L7.82457 11.2602C7.71422 11.0704 7.62969 10.8673 7.57297 10.6564L5.07371 11.3298C5.02781 11.1586 4.98969 10.9848 4.96184 10.8105L2.36205 11.2246C2.42548 11.6242 2.52138 12.0212 2.64719 12.4054L5.10879 11.6005C5.1923 11.8562 5.29594 12.1048 5.41867 12.3445L3.11435 13.5269C3.29843 13.8857 3.51241 14.2328 3.75114 14.5591L5.87656 13.0066C5.77238 12.8638 5.67547 12.7143 5.58676 12.5611V12.5606ZM6.49957 16.8986L6.49938 16.8985V16.899L6.49957 16.8986ZM6.49957 16.8986C6.86047 17.0821 7.23832 17.2378 7.62293 17.3621L8.43141 14.8571C8.17824 14.7757 7.92973 14.6731 7.69199 14.5524L6.49957 16.8986ZM7.43371 14.4606L7.43383 14.4604L7.43422 14.4606H7.43371ZM7.43383 14.4604L8.74805 12.18C8.55777 12.0702 8.38246 11.9361 8.22621 11.7804L4.54105 15.4785C4.82672 15.7636 5.13762 16.0281 5.46402 16.2648L6.98406 14.1688C7.12887 14.2739 7.27875 14.3713 7.43383 14.4604ZM12.1795 11.2534L14.4596 12.5688V12.5693C14.3699 12.724 14.2725 12.8741 14.1673 13.0189L16.2628 14.54C16.0256 14.8664 15.7611 15.1768 15.4759 15.4625L11.7794 11.7752C11.9351 11.619 12.0697 11.4437 12.1795 11.2534ZM9.35234 12.4296V12.4298L9.35184 12.4296H9.35234ZM9.35234 12.4298L8.67688 14.9737C8.84961 15.0196 9.02492 15.0557 9.20129 15.0836L8.80375 17.6426C9.19664 17.7034 9.59883 17.7344 9.99945 17.7344H10.0057V12.5137H9.99945C9.77945 12.5137 9.56203 12.4854 9.35234 12.4298ZM12.4296 10.6486C12.4852 10.4389 12.5136 10.221 12.5136 10.0005H17.7343C17.7343 10.4022 17.7029 10.8059 17.6415 11.2004L15.083 10.8012C15.0557 10.9776 15.0191 11.1529 14.9732 11.3257L12.4296 10.6486Z" fill="white"/>
</g>
<defs>
<clipPath id="clip0_4644_2661">
<rect width="20" height="20" fill="white"/>
</clipPath>
</defs>
</svg>
