<svg width="20" height="20" viewBox="0 0 20 20" fill="none" xmlns="http://www.w3.org/2000/svg">
<rect width="20" height="20" fill="white"/>
<path d="M19.9984 10.0354C19.9596 8.19486 19.4386 6.39898 18.49 4.83615C17.5414 3.27331 16.2002 2.00114 14.6071 1.1531C13.014 0.305061 11.2277 -0.0875809 9.43572 0.0163664C7.6437 0.120314 5.91199 0.71702 4.42227 1.74388C2.93255 2.77074 1.73974 4.1899 0.968988 5.85247C0.198232 7.51503 -0.122056 9.35972 0.0417243 11.193C0.205505 13.0262 0.847316 14.7805 1.89982 16.2717C2.95233 17.7629 4.37674 18.9361 6.0236 19.6682C6.51002 18.9183 6.88233 18.0968 7.12773 17.232C7.32824 16.7088 7.54598 16.1942 7.77166 15.6964C8.31614 15.8637 8.89469 15.8762 9.44556 15.7326C9.99642 15.589 10.4989 15.2946 10.8995 14.881L10.933 14.8466C10.4411 14.659 9.91091 14.6021 9.3918 14.6813C8.8727 14.7605 8.38159 14.9732 7.96423 15.2996C8.24026 14.7075 8.54147 14.1331 8.85062 13.5755C9.38511 13.7694 9.96099 13.8104 10.5165 13.694C11.0719 13.5777 11.586 13.3084 12.0036 12.915L12.0372 12.8806C11.562 12.6744 11.0443 12.5923 10.5306 12.6418C10.0168 12.6912 9.52308 12.8705 9.09354 13.1637C9.40269 12.6405 9.72069 12.1259 10.0555 11.6453C10.6086 11.7943 11.1909 11.7851 11.7393 11.6188C12.2878 11.4525 12.7813 11.1353 13.1665 10.7017L13.1916 10.6673C12.7349 10.5145 12.2495 10.4737 11.7745 10.5482C11.2996 10.6227 10.8483 10.8105 10.4569 11.0963C10.4821 11.0619 10.5157 11.0193 10.5404 10.9848C10.7409 10.7189 10.9503 10.453 11.1587 10.1957C11.7952 9.98209 12.3629 9.59443 12.8005 9.07448C13.2382 8.55453 13.5293 7.922 13.6426 7.24497L13.651 7.19332H13.6426C12.9798 7.37012 12.3785 7.73381 11.907 8.24318C11.4354 8.75254 11.1124 9.38721 10.9745 10.0752C10.774 10.3239 10.5731 10.5735 10.381 10.8299C10.5432 10.395 10.6093 9.92866 10.5746 9.4644C10.54 9.00013 10.4053 8.54953 10.1804 8.14505L10.1553 8.17948C9.81407 8.65747 9.60847 9.22298 9.56123 9.81341C9.51399 10.4038 9.62696 10.9962 9.88763 11.5248C9.56964 11.9882 9.26048 12.4598 8.96766 12.9572C9.06197 12.4572 9.03748 11.9412 8.89626 11.453C8.75504 10.9648 8.50124 10.5186 8.15634 10.1523L8.13956 10.1953C7.92622 10.7405 7.86331 11.3354 7.95773 11.9149C8.05214 12.4943 8.30025 13.0359 8.67485 13.4804C8.38203 14.0036 8.106 14.544 7.83835 15.1016C7.91966 14.5808 7.87861 14.0476 7.7186 13.5464C7.55859 13.0452 7.28425 12.5903 6.91839 12.2197L6.90161 12.2627C6.71079 12.8342 6.67538 13.4483 6.79918 14.0389C6.92298 14.6294 7.20131 15.1743 7.60428 15.6149C7.42762 16.0008 7.26155 16.3849 7.10256 16.7899C7.05882 16.7487 7.00766 16.7167 6.95195 16.6957C6.66661 16.6107 6.39372 16.4866 6.14063 16.327C5.9314 16.1996 5.70926 16.096 5.47815 16.018C4.57497 15.7177 4.70879 15.2719 4.24152 14.3709C4.08947 14.1854 3.92789 14.0084 3.75747 13.8405C3.59936 13.7353 3.46989 13.5907 3.38118 13.4201C3.27815 13.2072 3.21294 12.9771 3.18862 12.7406C3.18585 12.6099 3.14321 12.4833 3.06669 12.3786C2.99017 12.274 2.88361 12.1965 2.76198 12.1572C1.43216 11.6856 2.02619 9.91851 2.07609 9.68658C2.05565 9.38666 1.99072 9.09169 1.88353 8.81186C1.87233 8.77544 1.86391 8.73818 1.85836 8.70042C1.82287 8.51732 1.82934 8.32828 1.87724 8.14819C1.92514 7.96809 2.01317 7.80187 2.13439 7.66262C2.29338 7.49954 2.84545 7.23364 2.96249 7.07917C3.07953 6.9247 3.163 6.75302 3.28048 6.60761C3.65205 6.22745 4.08133 5.91169 4.55156 5.67264C4.93624 5.45837 5.00338 4.90935 5.15354 4.73767C5.4044 4.44594 5.78908 4.44594 6.07351 4.18864C6.21572 4.06 6.42683 3.99114 6.55932 3.85434C7.22733 3.22687 8.0692 2.82821 8.9681 2.71371C9.59144 2.66158 10.2189 2.71966 10.8231 2.88539C10.9105 2.90046 10.9971 2.92057 11.0823 2.94564C12.462 2.99728 14.1182 3.28855 14.7202 3.88922C15.0182 4.18292 15.2396 4.54863 15.3641 4.95284C15.4619 5.26585 15.5968 5.5654 15.7656 5.84477L16.1335 6.4622C16.3679 6.85155 16.443 7.32008 16.3424 7.7659C16.2746 7.9827 16.2688 8.21488 16.3256 8.43497C16.5197 8.73541 16.747 9.01177 17.0031 9.2585C17.1049 9.36178 17.2169 9.45378 17.3375 9.53301C17.6206 9.70625 17.8942 9.89528 18.1572 10.0992C18.1658 10.1819 18.1525 10.2655 18.1186 10.341C18.0846 10.4165 18.0315 10.4812 17.9646 10.5282C17.7305 10.7425 17.2787 11.0773 17.2787 11.0773C17.295 11.172 17.3231 11.2643 17.3622 11.3518C17.4289 11.4718 17.5795 11.6607 17.5296 11.8233C17.4797 11.986 17.1533 12.1237 17.2451 12.3035C17.337 12.4924 17.5711 12.5436 17.5044 12.7153C17.4377 12.8783 17.1113 13.1683 17.1449 13.2901C17.1785 13.412 17.4461 14.5585 16.8269 14.7569C16.0606 14.9123 15.2829 15.0013 14.502 15.0228C14.3761 15.0302 14.254 15.0703 14.1472 15.1394C14.0405 15.2084 13.9526 15.304 13.8917 15.4173C13.7731 15.6441 13.6966 15.8913 13.666 16.1467C13.4401 17.0597 13.1408 17.952 12.7712 18.8143C12.7712 18.8143 12.746 18.866 12.7124 18.943C12.6313 19.1125 12.5803 19.2955 12.5618 19.4834C12.6145 19.6214 12.6941 19.7469 12.7959 19.8521C12.8495 19.9151 12.9198 19.9607 12.9982 19.9836C13.0766 20.0064 13.1597 20.0054 13.2376 19.9808C15.2419 19.2643 16.9746 17.9171 18.1886 16.1313C19.4027 14.3455 20.036 12.2121 19.9984 10.0354Z" fill="#00DACC"/>
</svg>
