<svg width="20" height="20" viewBox="0 0 20 20" fill="none" xmlns="http://www.w3.org/2000/svg">
<rect width="20" height="20" fill="#FBEFF5"/>
<g clip-path="url(#clip0_4644_2634)">
<path d="M12.2693 14.6299C12.4133 14.6299 12.5381 14.7115 12.5381 14.8171C12.5381 14.9227 12.4133 15.0043 12.2693 15.0043H8.33325C8.18925 15.0043 8.06445 14.9227 8.06445 14.8171C8.06445 14.7115 8.18925 14.6299 8.33325 14.6299H12.2693Z" fill="#E1177C"/>
<path d="M7.48071 14.9966C7.62917 14.9966 7.74951 14.8762 7.74951 14.7278C7.74951 14.5793 7.62917 14.459 7.48071 14.459C7.33226 14.459 7.21191 14.5793 7.21191 14.7278C7.21191 14.8762 7.33226 14.9966 7.48071 14.9966Z" fill="#E1177C"/>
<path d="M9.84595 14.0044C9.9944 14.0044 10.1147 13.8841 10.1147 13.7356C10.1147 13.5871 9.9944 13.4668 9.84595 13.4668C9.69749 13.4668 9.57715 13.5871 9.57715 13.7356C9.57715 13.8841 9.69749 14.0044 9.84595 14.0044Z" fill="#E1177C"/>
<path d="M14.465 13.4668C14.609 13.4668 14.7338 13.5916 14.7338 13.7356C14.7338 13.8796 14.609 14.0044 14.465 14.0044H10.6106C10.4666 14.0044 10.3418 13.8796 10.3418 13.7356C10.3418 13.5916 10.4666 13.4668 10.6106 13.4668H14.465Z" fill="#E1177C"/>
<path d="M4.78931 13.0132C4.93776 13.0132 5.05811 12.8928 5.05811 12.7444C5.05811 12.5959 4.93776 12.4756 4.78931 12.4756C4.64085 12.4756 4.52051 12.5959 4.52051 12.7444C4.52051 12.8928 4.64085 13.0132 4.78931 13.0132Z" fill="#E1177C"/>
<path d="M8.62031 12.4756C8.76431 12.4756 8.88911 12.6004 8.88911 12.7444C8.88911 12.8884 8.76431 13.0132 8.62031 13.0132H5.44751C5.30351 13.0132 5.17871 12.8884 5.17871 12.7444C5.17871 12.6004 5.30351 12.4756 5.44751 12.4756H8.62031Z" fill="#E1177C"/>
<path d="M15.7333 12.4756C15.8773 12.4756 16.0021 12.6004 16.0021 12.7444C16.0021 12.8884 15.8773 13.0132 15.7333 13.0132H9.43091C9.28691 13.0132 9.16211 12.8884 9.16211 12.7444C9.16211 12.6004 9.28691 12.4756 9.43091 12.4756H15.7333Z" fill="#E1177C"/>
<path d="M14.5504 11.4756C14.6944 11.4756 14.8192 11.6004 14.8192 11.7444C14.8192 11.8884 14.6944 12.0132 14.5504 12.0132H6.81763C6.67363 12.0132 6.54883 11.8884 6.54883 11.7444C6.54883 11.6004 6.67363 11.4756 6.81763 11.4756H14.5504Z" fill="#E1177C"/>
<path d="M5.96802 12.0132C6.11647 12.0132 6.23682 11.8928 6.23682 11.7444C6.23682 11.5959 6.11647 11.4756 5.96802 11.4756C5.81956 11.4756 5.69922 11.5959 5.69922 11.7444C5.69922 11.8928 5.81956 12.0132 5.96802 12.0132Z" fill="#E1177C"/>
<path d="M12.9332 10.5C13.0772 10.5 13.202 10.6248 13.202 10.7688C13.202 10.9128 13.0772 11.0376 12.9332 11.0376H5.20044C5.05644 11.0376 4.93164 10.9128 4.93164 10.7688C4.93164 10.6248 5.05644 10.5 5.20044 10.5H12.9332Z" fill="#E1177C"/>
<path d="M4.2688 11.0444C4.41725 11.0444 4.5376 10.9241 4.5376 10.7756C4.5376 10.6272 4.41725 10.5068 4.2688 10.5068C4.12035 10.5068 4 10.6272 4 10.7756C4 10.9241 4.12035 11.0444 4.2688 11.0444Z" fill="#E1177C"/>
<path d="M5.96802 10.0454C6.11647 10.0454 6.23682 9.92507 6.23682 9.77661C6.23682 9.62816 6.11647 9.50781 5.96802 9.50781C5.81956 9.50781 5.69922 9.62816 5.69922 9.77661C5.69922 9.92507 5.81956 10.0454 5.96802 10.0454Z" fill="#E1177C"/>
<path d="M15.2935 9.50781C15.4375 9.50781 15.5623 9.63261 15.5623 9.77661C15.5623 9.92061 15.4375 10.0454 15.2935 10.0454H6.87915C6.73515 10.0454 6.61035 9.92061 6.61035 9.77661C6.61035 9.63261 6.73515 9.50781 6.87915 9.50781H15.2935Z" fill="#E1177C"/>
<path d="M12.3699 5.30213C13.7379 5.88293 14.6499 7.31333 14.5443 8.76293C12.0963 8.76293 9.65308 8.78213 7.20508 8.74373C7.20508 7.76933 7.53628 6.77573 8.24188 6.08933C9.27868 5.03333 10.9971 4.70213 12.3651 5.30213H12.3699Z" fill="#53CBC9"/>
</g>
<defs>
<clipPath id="clip0_4644_2634">
<rect width="12" height="12" fill="white" transform="translate(4 4)"/>
</clipPath>
</defs>
</svg>
