<svg width="20" height="20" viewBox="0 0 20 20" fill="none" xmlns="http://www.w3.org/2000/svg">
<rect width="20" height="20" fill="#0F1330"/>
<mask id="mask0_4807_831" style="mask-type:luminance" maskUnits="userSpaceOnUse" x="4" y="4" width="12" height="12">
<path d="M16 4H4V16H16V4Z" fill="white"/>
</mask>
<g mask="url(#mask0_4807_831)">
<path d="M9.92007 4.20996C7.52807 4.20996 5.59047 6.14916 5.58887 8.54116C5.58887 8.81476 5.61447 9.08836 5.66567 9.35716L6.22567 8.97476C7.20967 8.29956 8.80487 8.29956 9.78727 8.97476L10.3745 9.37796L10.6929 9.59716C11.5793 10.2052 13.0161 10.2052 13.9009 9.59716L14.1617 9.41956C14.6417 7.07556 13.1313 4.78596 10.7873 4.30436C10.5025 4.24516 10.2129 4.21636 9.92167 4.21636L9.92007 4.20996Z" fill="#F2B705"/>
</g>
<mask id="mask1_4807_831" style="mask-type:luminance" maskUnits="userSpaceOnUse" x="4" y="4" width="12" height="12">
<path d="M16 4H4V16H16V4Z" fill="white"/>
</mask>
<g mask="url(#mask1_4807_831)">
<path d="M12.3548 11.1433C11.7356 11.1545 11.1276 10.9817 10.6092 10.6473L9.7052 10.0281C8.702 9.41215 7.4364 9.41215 6.4316 10.0281L5.8476 10.4281C5.7324 10.5081 5.574 10.4777 5.494 10.3625C5.414 10.2473 5.4444 10.0889 5.5596 10.0089L6.1436 9.60895C7.3212 8.87775 8.8124 8.87775 9.99 9.60895L10.894 10.2281C11.7884 10.7769 12.9164 10.7769 13.8108 10.2281L14.1532 9.99295C14.2684 9.91295 14.4268 9.94335 14.5068 10.0585C14.5868 10.1737 14.5564 10.3321 14.4412 10.4121L14.0988 10.6473C13.5804 10.9801 12.9724 11.1529 12.3548 11.1433Z" fill="#53CBC8"/>
</g>
<mask id="mask2_4807_831" style="mask-type:luminance" maskUnits="userSpaceOnUse" x="4" y="4" width="12" height="12">
<path d="M16 4H4V16H16V4Z" fill="white"/>
</mask>
<g mask="url(#mask2_4807_831)">
<path d="M8.04843 12.9626V10.5146C8.04683 10.4634 8.04843 10.4122 8.05483 10.361C8.07083 10.2218 8.18923 10.1162 8.33003 10.1162C8.46603 10.121 8.57643 10.225 8.58923 10.361C8.60043 10.4458 8.60203 10.5322 8.59883 10.617V15.497C8.60523 15.6554 8.48203 15.7866 8.32363 15.793C8.32203 15.793 8.32043 15.793 8.31883 15.793C8.16363 15.785 8.04523 15.6522 8.05323 15.497C8.05323 15.4922 8.05323 15.4874 8.05483 15.4842V13.8554L8.04843 12.9626Z" fill="#53CBC8"/>
</g>
<mask id="mask3_4807_831" style="mask-type:luminance" maskUnits="userSpaceOnUse" x="4" y="4" width="12" height="12">
<path d="M16 4H4V16H16V4Z" fill="white"/>
</mask>
<g mask="url(#mask3_4807_831)">
<path d="M7.5345 11.7299V12.9459C7.5345 13.1539 7.4209 13.2883 7.2657 13.2883C7.1121 13.2883 6.9889 13.1427 6.9873 12.9459V10.5123C6.9873 10.2995 7.1121 10.1555 7.2737 10.1699C7.4353 10.1843 7.5313 10.3059 7.5329 10.5203C7.5345 10.9187 7.5345 11.3235 7.5345 11.7299Z" fill="#53CBC8"/>
</g>
<mask id="mask4_4807_831" style="mask-type:luminance" maskUnits="userSpaceOnUse" x="4" y="4" width="12" height="12">
<path d="M16 4H4V16H16V4Z" fill="white"/>
</mask>
<g mask="url(#mask4_4807_831)">
<path d="M9.11426 11.728V10.8752C9.11426 10.6768 9.21986 10.5488 9.37666 10.5488C9.53826 10.5568 9.66466 10.6944 9.65666 10.856C9.65666 10.8592 9.65666 10.864 9.65666 10.8672C9.66146 11.448 9.66146 12.0288 9.65666 12.6112C9.65666 12.8096 9.54306 12.9296 9.37826 12.9264C9.21506 12.9248 9.11586 12.8032 9.11426 12.6V11.728Z" fill="#53CBC8"/>
</g>
<mask id="mask5_4807_831" style="mask-type:luminance" maskUnits="userSpaceOnUse" x="4" y="4" width="12" height="12">
<path d="M16 4H4V16H16V4Z" fill="white"/>
</mask>
<g mask="url(#mask5_4807_831)">
<path d="M5.92871 11.9044V11.05C5.92871 10.8516 6.03431 10.7236 6.19111 10.7236C6.35271 10.7316 6.47911 10.8692 6.47111 11.0308C6.47111 11.034 6.47111 11.0388 6.47111 11.042C6.47591 11.6244 6.47591 12.2052 6.47111 12.7876C6.47111 12.986 6.35751 13.1044 6.19431 13.1028C6.03271 13.1012 5.93031 12.9796 5.92871 12.7764V11.9044Z" fill="#53CBC8"/>
</g>
<mask id="mask6_4807_831" style="mask-type:luminance" maskUnits="userSpaceOnUse" x="4" y="4" width="12" height="12">
<path d="M16 4H4V16H16V4Z" fill="white"/>
</mask>
<g mask="url(#mask6_4807_831)">
<path d="M10.4407 11.1777C10.5895 11.1777 10.7095 11.2977 10.7095 11.4465V11.9105C10.7095 12.0593 10.5895 12.1793 10.4407 12.1793C10.2919 12.1793 10.1719 12.0593 10.1719 11.9105V11.4465C10.1735 11.2993 10.2935 11.1777 10.4407 11.1777Z" fill="#53CBC8"/>
</g>
<mask id="mask7_4807_831" style="mask-type:luminance" maskUnits="userSpaceOnUse" x="4" y="4" width="12" height="12">
<path d="M16 4H4V16H16V4Z" fill="white"/>
</mask>
<g mask="url(#mask7_4807_831)">
<path d="M11.5042 11.5869C11.653 11.5869 11.773 11.7069 11.773 11.8557V14.4621C11.773 14.6109 11.653 14.7309 11.5042 14.7309C11.3554 14.7309 11.2354 14.6109 11.2354 14.4621V11.8557C11.2354 11.7069 11.3554 11.5869 11.5042 11.5869Z" fill="#53CBC8"/>
</g>
<mask id="mask8_4807_831" style="mask-type:luminance" maskUnits="userSpaceOnUse" x="4" y="4" width="12" height="12">
<path d="M16 4H4V16H16V4Z" fill="white"/>
</mask>
<g mask="url(#mask8_4807_831)">
<path d="M12.5627 11.6865C12.7115 11.6865 12.8315 11.8065 12.8315 11.9553V14.1697C12.8315 14.3185 12.7115 14.4385 12.5627 14.4385C12.4139 14.4385 12.2939 14.3185 12.2939 14.1697V11.9553C12.2939 11.8065 12.4139 11.6865 12.5627 11.6865Z" fill="#53CBC8"/>
</g>
<mask id="mask9_4807_831" style="mask-type:luminance" maskUnits="userSpaceOnUse" x="4" y="4" width="12" height="12">
<path d="M16 4H4V16H16V4Z" fill="white"/>
</mask>
<g mask="url(#mask9_4807_831)">
<path d="M13.6331 11.4336C13.7819 11.4336 13.9019 11.5536 13.9019 11.7024V12.6576C13.9019 12.8064 13.7819 12.9264 13.6331 12.9264C13.4843 12.9264 13.3643 12.8064 13.3643 12.6576V11.7024C13.3643 11.5536 13.4859 11.4336 13.6331 11.4336Z" fill="#53CBC8"/>
</g>
</svg>
