<svg width="20" height="20" viewBox="0 0 20 20" fill="none" xmlns="http://www.w3.org/2000/svg">
<rect width="20" height="20" fill="#3333C9"/>
<g clip-path="url(#clip0_4820_1311)">
<path fill-rule="evenodd" clip-rule="evenodd" d="M15.1334 6.15905C14.1523 4.92878 12.7252 4.15045 11.1324 4.15045C8.06161 4.15045 5.81904 6.96248 5.81904 10.013C5.81904 12.1346 7.24615 13.7289 8.83888 13.7289C8.99181 13.7289 9.13195 13.7164 9.28487 13.6913C8.21454 12.913 7.52647 11.5069 7.52647 10.0005C7.52647 7.59017 9.18291 5.71966 11.1324 5.71966C13.2604 5.71966 14.7384 7.80358 14.7384 10.0005C14.7384 11.6325 14.1395 13.2519 13.1075 14.4445C12.2028 15.4865 11.0305 16.1518 9.74355 16.3527C9.74355 16.3527 9.84552 16.3653 9.98566 16.3653C13.5534 16.3653 16.4459 13.5155 16.4459 10.0005C16.4459 8.55683 15.9617 7.22611 15.1334 6.15905ZM14.1523 10.0005C14.1523 7.8789 12.7252 6.28458 11.1324 6.28458C10.9795 6.28458 10.8394 6.29714 10.6865 6.32224C11.7568 7.08802 12.4321 8.48151 12.4321 10.0005C12.4321 12.4108 10.7757 14.2813 8.82614 14.2813C6.69824 14.2813 5.22017 12.1974 5.22017 10.0005C5.22017 8.36849 5.81904 6.74907 6.85114 5.55647C7.75582 4.5145 8.92811 3.84916 10.215 3.6483C10.215 3.6483 10.1131 3.63574 9.96018 3.63574C6.39243 3.63574 3.5 6.48544 3.5 10.0005C3.5 11.4442 3.98419 12.7749 4.81242 13.842C5.79356 15.0722 7.2334 15.8505 8.8134 15.8505C11.9097 15.8631 14.1523 13.0511 14.1523 10.0005Z" fill="white"/>
</g>
<defs>
<clipPath id="clip0_4820_1311">
<rect width="13" height="13" fill="white" transform="translate(3.5 3.5)"/>
</clipPath>
</defs>
</svg>
