<svg width="20" height="20" viewBox="0 0 20 20" fill="none" xmlns="http://www.w3.org/2000/svg">
<g clip-path="url(#clip0_4642_2476)">
<rect width="20" height="20" fill="black"/>
<path d="M20 0H0V20H20V0Z" fill="black"/>
<path d="M11.4431 8.33105H8.55736C8.43594 8.33105 8.33594 8.43113 8.33594 8.55264V11.4404C8.33594 11.5619 8.43594 11.662 8.55736 11.662H11.4431C11.5645 11.662 11.6645 11.5619 11.6645 11.4404V8.55264C11.6645 8.43113 11.5645 8.33105 11.4431 8.33105Z" fill="white"/>
<path d="M8.10712 5H5.22143C5.1 5 5 5.10007 5 5.22159V8.10938C5 8.23089 5.1 8.33096 5.22143 8.33096H8.10712C8.22855 8.33096 8.32855 8.23089 8.32855 8.10938V5.22159C8.32855 5.10007 8.22855 5 8.10712 5Z" fill="white"/>
<path d="M14.779 5H11.8933C11.7719 5 11.6719 5.10007 11.6719 5.22159V8.10938C11.6719 8.23089 11.7719 8.33096 11.8933 8.33096H14.779C14.9004 8.33096 15.0004 8.23089 15.0004 8.10938V5.22159C15.0004 5.10007 14.9004 5 14.779 5Z" fill="white"/>
<path d="M8.10712 11.6689H5.22143C5.1 11.6689 5 11.769 5 11.8905V14.7783C5 14.8998 5.1 14.9999 5.22143 14.9999H8.10712C8.22855 14.9999 8.32855 14.8998 8.32855 14.7783V11.8905C8.32855 11.769 8.22855 11.6689 8.10712 11.6689Z" fill="white"/>
<path d="M14.779 11.6689H11.8933C11.7719 11.6689 11.6719 11.769 11.6719 11.8905V14.7783C11.6719 14.8998 11.7719 14.9999 11.8933 14.9999H14.779C14.9004 14.9999 15.0004 14.8998 15.0004 14.7783V11.8905C15.0004 11.769 14.9004 11.6689 14.779 11.6689Z" fill="white"/>
</g>
<defs>
<clipPath id="clip0_4642_2476">
<rect width="20" height="20" fill="white"/>
</clipPath>
</defs>
</svg>
