<svg width="20" height="20" viewBox="0 0 20 20" fill="none" xmlns="http://www.w3.org/2000/svg">
<rect width="20" height="20" fill="#19164F"/>
<path d="M15.4255 6.12142C15.3051 5.66354 14.9179 5.20566 14.2209 4.69595C13.6617 4.2899 13.068 4.05664 12.5948 4.05664C12.5001 4.05664 12.4141 4.06529 12.328 4.08256C12.1129 4.12576 11.9236 4.28126 11.8032 4.51452C11.6569 4.79097 11.6225 5.16248 11.7172 5.3871C11.7516 5.4562 11.7946 5.54259 11.8462 5.62036C11.3902 5.89681 11.1321 5.97455 11.0977 5.9832C12.285 6.3806 13.2745 7.21 13.894 8.28989L13.9026 8.18623C13.9284 7.89249 14.0144 7.57284 14.1349 7.23591C14.2554 7.27047 14.3758 7.28774 14.4963 7.28774C14.8146 7.28774 15.09 7.15814 15.262 6.9249C15.4341 6.69164 15.503 6.38925 15.4255 6.12142Z" fill="#5E12A0"/>
<path d="M14.1863 6.98599C14.9693 7.20199 15.2876 6.59724 15.1844 6.19119C15.0812 5.78514 14.7112 5.37044 14.0744 4.90391C13.4378 4.43739 12.7924 4.24733 12.3795 4.33373C11.9664 4.42012 11.846 5.05078 11.9493 5.29269C11.9923 5.38771 12.0869 5.52596 12.216 5.68145C12.0525 5.79376 11.8976 5.88015 11.7686 5.95792C12.5601 6.31212 13.2485 6.86504 13.7647 7.55618C13.8249 7.32292 13.911 7.11559 13.9884 6.93416C14.0486 6.95143 14.1175 6.96872 14.1863 6.98599Z" fill="url(#paint0_radial_4929_752)"/>
<path d="M9.70323 15.4605C12.3595 15.4605 14.5129 13.2983 14.5129 10.6311C14.5129 7.96394 12.3595 5.80176 9.70323 5.80176C7.04691 5.80176 4.89355 7.96394 4.89355 10.6311C4.89355 13.2983 7.04691 15.4605 9.70323 15.4605Z" fill="url(#paint1_radial_4929_752)"/>
<path opacity="0.6" d="M14.7884 5.80231C14.1345 5.11117 13.5838 4.92973 12.9213 4.78286C12.4051 4.66191 12.5427 4.36819 13.1708 4.42864C12.8697 4.32498 12.5857 4.29907 12.3792 4.34225C11.9662 4.42864 11.8458 5.05933 11.949 5.30122C11.992 5.39626 12.0867 5.53448 12.2158 5.69C11.9835 5.84549 11.7856 5.95783 11.6221 6.04422C11.6995 6.07876 11.7941 6.12197 11.906 6.18244C12.1985 6.33794 12.5169 6.59711 12.5169 6.59711C12.0351 6.18244 12.1383 5.99236 12.8008 5.52584C13.0073 5.37899 13.3859 5.39626 13.7387 5.57769C14.0915 5.7591 14.5045 6.21701 14.5045 6.21701L14.1086 6.97725C14.1345 6.9859 14.1603 6.99454 14.1861 7.00316C14.4356 7.07229 14.6335 7.05499 14.7884 6.99454C14.9691 6.88221 15.4423 6.49345 14.7884 5.80231Z" fill="#A98698"/>
<path d="M12.9126 5.19701C13.0847 5.26614 13.3084 5.38707 13.5838 5.5685C13.9107 5.7845 14.1947 6.02638 14.3754 6.21646C14.0742 6.61386 13.8763 7.15814 13.7559 7.53827C13.8161 7.62466 13.8849 7.71106 13.9451 7.79745C14.0054 7.58145 14.1086 7.2618 14.2463 6.94217C14.2807 6.95079 14.3237 6.95079 14.3668 6.95079C14.47 6.95079 14.5905 6.93352 14.6851 6.85577C14.7539 6.80392 14.8314 6.7089 14.8228 6.53612C14.8228 6.37195 14.6937 6.16463 14.427 5.91407C14.2377 5.73264 13.9796 5.53394 13.7214 5.35253C12.9815 4.86009 12.4652 4.72186 12.2329 4.9551C12.078 5.11062 12.0953 5.30067 12.1469 5.43892C11.8716 5.62033 11.6393 5.74993 11.4844 5.83633C11.5876 5.87089 11.6823 5.91407 11.7855 5.95728C12.0609 5.80176 12.4566 5.55123 12.9126 5.19701ZM14.5388 6.42381C14.5646 6.46699 14.5732 6.51018 14.5732 6.53612C14.5732 6.61386 14.5474 6.63978 14.5302 6.65705C14.4958 6.68296 14.427 6.70026 14.3668 6.70026C14.4184 6.60522 14.4786 6.5102 14.5388 6.42381ZM12.4136 5.13654C12.4394 5.11062 12.5083 5.09335 12.6201 5.11062C12.5341 5.17974 12.448 5.24022 12.362 5.30067C12.3534 5.24022 12.362 5.18837 12.4136 5.13654Z" fill="#5E12A0"/>
<path d="M9.703 5.5166C6.88947 5.5166 4.60938 7.80603 4.60938 10.6311C4.60938 13.4561 6.88947 15.7456 9.703 15.7456C12.5166 15.7456 14.7966 13.4561 14.7966 10.6311C14.788 7.80603 12.5079 5.5166 9.703 5.5166ZM9.703 15.4518C7.04435 15.4518 4.89333 13.292 4.89333 10.6224C4.89333 7.9529 7.04435 5.79305 9.703 5.79305C12.3617 5.79305 14.5127 7.9529 14.5127 10.6224C14.5041 13.292 12.3531 15.4518 9.703 15.4518Z" fill="#5E12A0"/>
<path opacity="0.6" d="M9.70323 15.4605C12.3595 15.4605 14.5129 13.2983 14.5129 10.6311C14.5129 7.96394 12.3595 5.80176 9.70323 5.80176C7.04691 5.80176 4.89355 7.96394 4.89355 10.6311C4.89355 13.2983 7.04691 15.4605 9.70323 15.4605Z" fill="url(#paint2_linear_4929_752)"/>
<path opacity="0.6" d="M9.66942 14.8649C7.04515 14.4416 5.26412 11.9621 5.69431 9.32708C5.8836 8.16079 6.46868 7.16725 7.29467 6.4502C6.09012 7.14999 5.1953 8.36811 4.95435 9.85408C4.53276 12.4891 6.31382 14.9686 8.92947 15.3919C10.3922 15.6338 11.8032 15.1759 12.8443 14.2774C11.9237 14.8217 10.8051 15.055 9.66942 14.8649Z" fill="#A98698"/>
<path opacity="0.6" d="M10.4691 5.86247C9.25589 5.66377 8.07712 5.94024 7.11346 6.55361C7.09624 6.57091 7.07905 6.58818 7.07905 6.58818C7.44901 6.36356 7.99108 6.16486 7.99108 6.16486C6.59721 6.97696 6.16699 7.90137 6.16699 7.90137C6.70906 6.84736 8.30085 6.10438 9.54841 6.05255C10.796 6.00069 11.6134 6.37218 12.6115 7.17566C13.6095 7.98773 14.2118 9.64649 14.1516 10.9597C14.1 12.2728 13.4116 13.3355 13.4116 13.3355C13.8849 12.7221 14.1688 12.2728 14.3495 11.815C14.3839 11.6767 14.4183 11.5385 14.4356 11.3916C14.8657 8.76527 13.0933 6.29444 10.4691 5.86247Z" fill="url(#paint3_linear_4929_752)"/>
<path d="M14.2721 10.5801C14.2721 13.1114 12.2244 15.1676 9.70335 15.1676C7.18236 15.1676 5.12598 13.1114 5.12598 10.5801H14.2721Z" fill="url(#paint4_linear_4929_752)"/>
<g opacity="0.6">
<path opacity="0.6" d="M13.9115 10.5801C13.9115 13.0509 11.967 15.0725 9.52344 15.1676C9.58366 15.1676 9.64391 15.1676 9.70413 15.1676C12.2251 15.1676 14.2729 13.1114 14.2729 10.5801H13.9115Z" fill="url(#paint5_linear_4929_752)"/>
</g>
<g opacity="0.7">
<path d="M5.7713 10.5801H5.12598C5.12598 13.1114 7.17374 15.1676 9.69476 15.1676C9.80661 15.1676 9.90984 15.1676 10.0131 15.1589C7.64696 14.9948 5.7713 13.0077 5.7713 10.5801Z" fill="url(#paint6_linear_4929_752)"/>
</g>
<path d="M14.2635 10.6312C14.2635 10.1042 13.3515 9.80179 12.1383 9.6981C11.2607 9.62901 10.3745 9.7154 9.35918 10.0264C8.48158 10.2856 7.69 10.2424 7.11352 10.1733C5.83152 10.0264 5.12598 10.0091 5.12598 10.6312C5.12598 11.5296 6.95004 12.6528 9.68614 12.264C11.0714 12.0653 11.7855 11.6592 12.6029 11.3828C13.4891 11.0804 14.2635 11.0977 14.2635 10.6312Z" fill="url(#paint7_linear_4929_752)"/>
<path d="M11.2001 8.4457C11.6278 8.4457 11.9745 8.09759 11.9745 7.66816C11.9745 7.23873 11.6278 6.89062 11.2001 6.89062C10.7725 6.89062 10.4258 7.23873 10.4258 7.66816C10.4258 8.09759 10.7725 8.4457 11.2001 8.4457Z" fill="white"/>
<path d="M12.4656 9.02475C12.6462 9.02475 12.7926 8.87777 12.7926 8.69647C12.7926 8.51514 12.6462 8.36816 12.4656 8.36816C12.2851 8.36816 12.1387 8.51514 12.1387 8.69647C12.1387 8.87777 12.2851 9.02475 12.4656 9.02475Z" fill="white"/>
<g opacity="0.6">
<path d="M13.635 7.05481C13.6264 7.05481 13.6178 7.05481 13.6178 7.05481C13.5662 7.04616 13.5318 6.99433 13.5404 6.93385C13.6178 6.53645 13.9448 6.15632 13.962 6.13905C13.9964 6.09584 14.0652 6.09584 14.0997 6.1304C14.1427 6.16496 14.1427 6.23409 14.1083 6.26862C14.0997 6.27727 13.7985 6.63149 13.7297 6.97706C13.7211 7.02024 13.678 7.05481 13.635 7.05481Z" fill="url(#paint8_linear_4929_752)"/>
</g>
<path d="M12.5943 4.06567C13.0762 4.06567 13.6698 4.29894 14.2205 4.70496C14.9174 5.2147 15.3046 5.66393 15.4251 6.13046C15.4939 6.39828 15.4337 6.70065 15.2616 6.92526C15.0809 7.15853 14.8142 7.28813 14.4959 7.28813C14.384 7.28813 14.2635 7.27084 14.1345 7.2363C14.057 7.435 13.9968 7.6337 13.9538 7.82376C14.4786 8.62721 14.7884 9.59482 14.7884 10.6315C14.7884 13.4566 12.5083 15.746 9.69475 15.746C6.88121 15.746 4.60974 13.4566 4.60974 10.6315C4.60974 7.80649 6.88983 5.51706 9.70337 5.51706C10.3229 5.51706 10.9165 5.62937 11.4672 5.83672C11.5705 5.78489 11.6995 5.71576 11.8458 5.62937C11.7942 5.55162 11.7425 5.47388 11.7167 5.39613C11.6221 5.16287 11.6565 4.8 11.8027 4.52355C11.9232 4.29894 12.1039 4.14342 12.3276 4.09159C12.4051 4.0743 12.4997 4.06567 12.5943 4.06567ZM12.5943 3.91016C12.4911 3.91016 12.3878 3.9188 12.2932 3.94472C12.0351 4.0052 11.8114 4.17798 11.6651 4.45443C11.5016 4.77409 11.4586 5.18878 11.5705 5.45658C11.5877 5.49115 11.6049 5.53435 11.6307 5.57754C11.5705 5.6121 11.5102 5.64666 11.45 5.67258C10.8821 5.47388 10.297 5.37019 9.69475 5.37019C8.98923 5.37019 8.3009 5.50844 7.6556 5.78489C7.0275 6.05271 6.46824 6.43282 5.9864 6.91664C5.50458 7.40044 5.126 7.962 4.85926 8.59267C4.58393 9.2406 4.44629 9.93175 4.44629 10.6402C4.44629 11.3486 4.58393 12.0397 4.85926 12.6877C5.126 13.3184 5.50458 13.8799 5.9864 14.3637C6.46824 14.8475 7.0275 15.2277 7.6556 15.4955C8.3009 15.7719 8.98923 15.9102 9.69475 15.9102C10.4003 15.9102 11.0886 15.7719 11.7339 15.4955C12.3621 15.2277 12.9213 14.8475 13.4031 14.3637C13.885 13.8799 14.2635 13.3184 14.5303 12.6877C14.8056 12.0397 14.9433 11.3486 14.9433 10.6402C14.9433 9.62939 14.6593 8.65315 14.1172 7.80649C14.1431 7.67688 14.1861 7.54731 14.2291 7.41771C14.3152 7.435 14.4098 7.44362 14.4959 7.44362C14.8572 7.44362 15.1756 7.29678 15.382 7.0203C15.5799 6.76112 15.6574 6.39828 15.5714 6.0959C15.4337 5.59483 15.0379 5.11966 14.3066 4.59265C13.7301 4.15207 13.102 3.91016 12.5943 3.91016Z" fill="white"/>
<path opacity="0.2" d="M9.38548 14.225C9.5185 14.225 9.62637 14.1167 9.62637 13.9831C9.62637 13.8495 9.5185 13.7412 9.38548 13.7412C9.2524 13.7412 9.14453 13.8495 9.14453 13.9831C9.14453 14.1167 9.2524 14.225 9.38548 14.225Z" fill="white"/>
<g opacity="0.4">
<path opacity="0.6" d="M9.24701 14.1476C9.15237 14.0525 9.15237 13.897 9.24701 13.802C9.26422 13.7847 9.28144 13.7761 9.29863 13.7588C9.26422 13.7674 9.23841 13.7847 9.2126 13.8106C9.11794 13.9057 9.11794 14.0612 9.2126 14.1562C9.29001 14.234 9.41049 14.2512 9.50515 14.1994C9.41911 14.234 9.31583 14.2167 9.24701 14.1476Z" fill="url(#paint9_linear_4929_752)"/>
</g>
<path opacity="0.3" d="M9.47152 13.9142C9.50005 13.9142 9.52315 13.891 9.52315 13.8624C9.52315 13.8338 9.50005 13.8105 9.47152 13.8105C9.44302 13.8105 9.41992 13.8338 9.41992 13.8624C9.41992 13.891 9.44302 13.9142 9.47152 13.9142Z" fill="white"/>
<path opacity="0.2" d="M10.6413 14.1049C10.7744 14.1049 10.8822 13.9966 10.8822 13.863C10.8822 13.7294 10.7744 13.6211 10.6413 13.6211C10.5083 13.6211 10.4004 13.7294 10.4004 13.863C10.4004 13.9966 10.5083 14.1049 10.6413 14.1049Z" fill="white"/>
<g opacity="0.4">
<path opacity="0.6" d="M10.5038 14.0177C10.4092 13.9226 10.4092 13.7671 10.5038 13.6721C10.521 13.6548 10.5383 13.6462 10.5555 13.6289C10.521 13.6376 10.4952 13.6548 10.4694 13.6807C10.3748 13.7758 10.3748 13.9313 10.4694 14.0263C10.5468 14.1041 10.6673 14.1213 10.762 14.0695C10.6759 14.1127 10.5727 14.0954 10.5038 14.0177Z" fill="url(#paint10_linear_4929_752)"/>
</g>
<path opacity="0.3" d="M10.7274 13.7931C10.7559 13.7931 10.779 13.7699 10.779 13.7413C10.779 13.7127 10.7559 13.6895 10.7274 13.6895C10.6989 13.6895 10.6758 13.7127 10.6758 13.7413C10.6758 13.7699 10.6989 13.7931 10.7274 13.7931Z" fill="white"/>
<path opacity="0.2" d="M10.0215 14.6666C10.1213 14.6666 10.2022 14.5854 10.2022 14.4851C10.2022 14.385 10.1213 14.3037 10.0215 14.3037C9.92171 14.3037 9.84082 14.385 9.84082 14.4851C9.84082 14.5854 9.92171 14.6666 10.0215 14.6666Z" fill="white"/>
<g opacity="0.4">
<path opacity="0.6" d="M9.9192 14.6054C9.85038 14.5363 9.85038 14.4154 9.9192 14.3462C9.92782 14.3376 9.94501 14.329 9.95364 14.3203C9.92782 14.329 9.91063 14.3462 9.89341 14.3635C9.82459 14.4326 9.82459 14.5536 9.89341 14.6227C9.95364 14.6832 10.0397 14.6918 10.1171 14.6486C10.0483 14.6659 9.97083 14.6572 9.9192 14.6054Z" fill="url(#paint11_linear_4929_752)"/>
</g>
<path opacity="0.3" d="M10.0823 14.4246C10.1013 14.4246 10.1167 14.4091 10.1167 14.39C10.1167 14.3709 10.1013 14.3555 10.0823 14.3555C10.0632 14.3555 10.0479 14.3709 10.0479 14.39C10.0479 14.4091 10.0632 14.4246 10.0823 14.4246Z" fill="white"/>
<path opacity="0.2" d="M11.1319 14.5367C11.2317 14.5367 11.3125 14.4554 11.3125 14.3553C11.3125 14.255 11.2317 14.1738 11.1319 14.1738C11.0321 14.1738 10.9512 14.255 10.9512 14.3553C10.9512 14.4554 11.0321 14.5367 11.1319 14.5367Z" fill="white"/>
<g opacity="0.4">
<path opacity="0.6" d="M11.0286 14.4765C10.9598 14.4074 10.9598 14.2864 11.0286 14.2173C11.0372 14.2087 11.0544 14.2 11.063 14.1914C11.0372 14.2 11.02 14.2173 11.0028 14.2346C10.934 14.3037 10.934 14.4246 11.0028 14.4938C11.063 14.5542 11.1491 14.5629 11.2265 14.5197C11.1577 14.537 11.0803 14.5283 11.0286 14.4765Z" fill="url(#paint12_linear_4929_752)"/>
</g>
<path opacity="0.3" d="M11.1917 14.2947C11.2107 14.2947 11.226 14.2792 11.226 14.2601C11.226 14.2411 11.2107 14.2256 11.1917 14.2256C11.1726 14.2256 11.1572 14.2411 11.1572 14.2601C11.1572 14.2792 11.1726 14.2947 11.1917 14.2947Z" fill="white"/>
<path opacity="0.2" d="M8.36065 14.1395C8.57926 14.1395 8.75643 13.9616 8.75643 13.7421C8.75643 13.5227 8.57926 13.3447 8.36065 13.3447C8.14207 13.3447 7.96484 13.5227 7.96484 13.7421C7.96484 13.9616 8.14207 14.1395 8.36065 14.1395Z" fill="white"/>
<g opacity="0.4">
<path opacity="0.6" d="M8.13752 14.001C7.98263 13.8454 7.98263 13.5949 8.13752 13.4394C8.1633 13.4135 8.18912 13.3962 8.22355 13.3789C8.17193 13.3962 8.1289 13.4307 8.08589 13.4653C7.93101 13.6208 7.93101 13.8713 8.08589 14.0269C8.21493 14.1564 8.41282 14.1824 8.56771 14.0873C8.42144 14.1478 8.24937 14.1133 8.13752 14.001Z" fill="url(#paint13_linear_4929_752)"/>
</g>
<path opacity="0.3" d="M8.49915 13.6298C8.54667 13.6298 8.58519 13.5911 8.58519 13.5434C8.58519 13.4957 8.54667 13.457 8.49915 13.457C8.45163 13.457 8.41309 13.4957 8.41309 13.5434C8.41309 13.5911 8.45163 13.6298 8.49915 13.6298Z" fill="white"/>
<path opacity="0.2" d="M11.8977 13.163C12.1163 13.163 12.2935 12.9851 12.2935 12.7656C12.2935 12.5461 12.1163 12.3682 11.8977 12.3682C11.6791 12.3682 11.502 12.5461 11.502 12.7656C11.502 12.9851 11.6791 13.163 11.8977 13.163Z" fill="white"/>
<g opacity="0.4">
<path opacity="0.6" d="M11.6658 13.0244C11.5109 12.8689 11.5109 12.6183 11.6658 12.4628C11.6916 12.4369 11.7174 12.4196 11.7519 12.4023C11.7002 12.4196 11.6572 12.4542 11.6142 12.4887C11.4593 12.6443 11.4593 12.8948 11.6142 13.0503C11.7433 13.1799 11.9411 13.2058 12.096 13.1108C11.9497 13.1713 11.7863 13.1367 11.6658 13.0244Z" fill="url(#paint14_linear_4929_752)"/>
</g>
<path opacity="0.3" d="M12.0353 12.6532C12.0828 12.6532 12.1213 12.6146 12.1213 12.5669C12.1213 12.5191 12.0828 12.4805 12.0353 12.4805C11.9877 12.4805 11.9492 12.5191 11.9492 12.5669C11.9492 12.6146 11.9877 12.6532 12.0353 12.6532Z" fill="white"/>
<defs>
<radialGradient id="paint0_radial_4929_752" cx="0" cy="0" r="1" gradientUnits="userSpaceOnUse" gradientTransform="translate(15.0274 5.6515) scale(3.84553 3.86128)">
<stop stop-color="#FFEAFF" stop-opacity="0.6"/>
<stop offset="0.6807" stop-color="#A087C9"/>
<stop offset="1" stop-color="#10002F"/>
</radialGradient>
<radialGradient id="paint1_radial_4929_752" cx="0" cy="0" r="1" gradientUnits="userSpaceOnUse" gradientTransform="translate(12.8876 7.29765) scale(9.40866 9.44719)">
<stop stop-color="#FFEAFF" stop-opacity="0.6"/>
<stop offset="0.6807" stop-color="#A087C9"/>
<stop offset="1" stop-color="#10002F"/>
</radialGradient>
<linearGradient id="paint2_linear_4929_752" x1="8.93272" y1="15.3874" x2="10.4834" y2="5.85973" gradientUnits="userSpaceOnUse">
<stop stop-color="#81FFFF"/>
<stop offset="0.6202" stop-color="white" stop-opacity="0"/>
</linearGradient>
<linearGradient id="paint3_linear_4929_752" x1="13.0929" y1="7.34756" x2="9.10087" y2="10.9954" gradientUnits="userSpaceOnUse">
<stop offset="0.2888" stop-color="white"/>
<stop offset="0.7796" stop-color="white" stop-opacity="0"/>
</linearGradient>
<linearGradient id="paint4_linear_4929_752" x1="5.12986" y1="12.8757" x2="14.2699" y2="12.8757" gradientUnits="userSpaceOnUse">
<stop stop-color="#0002E9"/>
<stop offset="0.9952" stop-color="#FF00C7"/>
</linearGradient>
<linearGradient id="paint5_linear_4929_752" x1="14.7034" y1="10.9872" x2="9.70928" y2="15.6877" gradientUnits="userSpaceOnUse">
<stop offset="0.2888" stop-color="white"/>
<stop offset="0.7796" stop-color="white" stop-opacity="0"/>
</linearGradient>
<linearGradient id="paint6_linear_4929_752" x1="5.12986" y1="12.8757" x2="10.0197" y2="12.8757" gradientUnits="userSpaceOnUse">
<stop stop-color="#000292"/>
<stop offset="0.9952" stop-color="#7D00C7"/>
</linearGradient>
<linearGradient id="paint7_linear_4929_752" x1="5.13599" y1="11.0082" x2="14.2638" y2="11.0082" gradientUnits="userSpaceOnUse">
<stop stop-color="#000292"/>
<stop offset="0.9952" stop-color="#BE00C7"/>
</linearGradient>
<linearGradient id="paint8_linear_4929_752" x1="14.1136" y1="6.09295" x2="13.4537" y2="7.16095" gradientUnits="userSpaceOnUse">
<stop offset="0.2888" stop-color="white"/>
<stop offset="0.7796" stop-color="white" stop-opacity="0"/>
</linearGradient>
<linearGradient id="paint9_linear_4929_752" x1="9.14137" y1="13.9954" x2="9.5054" y2="13.9954" gradientUnits="userSpaceOnUse">
<stop offset="0.2888" stop-color="white"/>
<stop offset="0.7796" stop-color="white" stop-opacity="0"/>
</linearGradient>
<linearGradient id="paint10_linear_4929_752" x1="10.3973" y1="13.8725" x2="10.7614" y2="13.8725" gradientUnits="userSpaceOnUse">
<stop offset="0.2888" stop-color="white"/>
<stop offset="0.7796" stop-color="white" stop-opacity="0"/>
</linearGradient>
<linearGradient id="paint11_linear_4929_752" x1="9.84064" y1="14.4911" x2="10.1139" y2="14.4911" gradientUnits="userSpaceOnUse">
<stop offset="0.2888" stop-color="white"/>
<stop offset="0.7796" stop-color="white" stop-opacity="0"/>
</linearGradient>
<linearGradient id="paint12_linear_4929_752" x1="10.9463" y1="14.3619" x2="11.2196" y2="14.3619" gradientUnits="userSpaceOnUse">
<stop offset="0.2888" stop-color="white"/>
<stop offset="0.7796" stop-color="white" stop-opacity="0"/>
</linearGradient>
<linearGradient id="paint13_linear_4929_752" x1="7.96577" y1="13.7565" x2="8.56028" y2="13.7565" gradientUnits="userSpaceOnUse">
<stop offset="0.2888" stop-color="white"/>
<stop offset="0.7796" stop-color="white" stop-opacity="0"/>
</linearGradient>
<linearGradient id="paint14_linear_4929_752" x1="11.4974" y1="12.7796" x2="12.0919" y2="12.7796" gradientUnits="userSpaceOnUse">
<stop offset="0.2888" stop-color="white"/>
<stop offset="0.7796" stop-color="white" stop-opacity="0"/>
</linearGradient>
</defs>
</svg>
