<svg width="20" height="20" viewBox="0 0 20 20" fill="none" xmlns="http://www.w3.org/2000/svg">
<rect width="20" height="20" fill="black"/>
<path d="M6.09796 4.00007C6.10871 4.00005 6.10871 4.00005 6.11967 4.00002C6.14322 3.99998 6.16676 4.00001 6.1903 4.00004C6.20676 4.00003 6.22322 4.00003 6.23967 4.00001C6.27411 4 6.30855 4.00002 6.34299 4.00007C6.38702 4.00012 6.43104 4.00009 6.47507 4.00003C6.50904 4 6.54301 4.00001 6.57698 4.00003C6.59321 4.00004 6.60943 4.00003 6.62566 4.00001C6.64839 3.99998 6.67112 4.00002 6.69386 4.00007C6.7038 4.00005 6.7038 4.00005 6.71395 4.00002C6.82623 4.0005 6.82623 4.0005 6.85608 4.03035C6.88005 4.03229 6.90295 4.03302 6.92694 4.03291C6.93802 4.03298 6.93802 4.03298 6.94933 4.03304C6.97422 4.03316 6.99912 4.03314 7.02401 4.03313C7.04181 4.03319 7.05961 4.03325 7.0774 4.03333C7.1158 4.03347 7.1542 4.03356 7.1926 4.0336C7.25334 4.03366 7.31408 4.03387 7.37482 4.0341C7.50384 4.03458 7.63285 4.03489 7.76187 4.03519C7.90095 4.03551 8.04002 4.03585 8.1791 4.03639C8.23945 4.03661 8.2998 4.03675 8.36016 4.03681C8.39777 4.03687 8.43538 4.037 8.47299 4.03716C8.4904 4.03722 8.50781 4.03724 8.52522 4.03723C8.54905 4.03722 8.57287 4.03732 8.59669 4.03746C8.60695 4.03741 8.60695 4.03741 8.61742 4.03736C8.73137 4.03842 8.73137 4.03842 8.76199 4.06905C8.7791 4.07008 8.79625 4.07042 8.81339 4.07051C8.82454 4.07059 8.83569 4.07067 8.84717 4.07076C8.86569 4.07082 8.86569 4.07082 8.88458 4.07088C8.89762 4.07096 8.91067 4.07104 8.92371 4.07112C8.95188 4.0713 8.98004 4.07144 9.0082 4.07157C9.05276 4.07176 9.09732 4.07203 9.14189 4.07231C9.23656 4.07289 9.33124 4.07339 9.42592 4.07388C9.52793 4.07442 9.62993 4.07497 9.73194 4.0756C9.7762 4.07588 9.82046 4.0761 9.86472 4.0763C9.89234 4.07643 9.91995 4.0766 9.94756 4.07677C9.96639 4.07688 9.98522 4.07695 10.0041 4.07701C10.1545 4.07808 10.1545 4.07808 10.1842 4.10774C10.2035 4.111 10.2035 4.111 10.2257 4.11107C10.234 4.11136 10.2423 4.11164 10.2509 4.11194C10.2596 4.11215 10.2683 4.11236 10.2773 4.11258C10.4348 4.11651 10.4348 4.11651 10.4647 4.14644C10.4839 4.14909 10.503 4.15146 10.5222 4.1537C10.5762 4.16152 10.6176 4.17541 10.6648 4.20237C10.691 4.21613 10.7171 4.22463 10.7453 4.23351C10.8187 4.2581 10.8795 4.28356 10.9389 4.33381C10.9568 4.3485 10.9741 4.3597 10.9944 4.37077C11.0241 4.3873 11.0478 4.40587 11.0742 4.427C11.0841 4.43201 11.0939 4.43702 11.104 4.44218C11.1539 4.4704 11.1918 4.51134 11.2319 4.55175C11.2403 4.56012 11.2487 4.56849 11.2573 4.57712C11.275 4.59479 11.2927 4.61249 11.3103 4.63023C11.3372 4.65728 11.3642 4.68417 11.3913 4.71105C11.4085 4.72828 11.4257 4.74552 11.4429 4.76277C11.455 4.77476 11.455 4.77476 11.4673 4.78699C11.5089 4.8291 11.541 4.86752 11.5677 4.92039C11.5968 4.95968 11.6315 4.99415 11.6664 5.02828C11.6747 5.03644 11.6747 5.03644 11.6831 5.04476C11.6942 5.05552 11.7053 5.06621 11.7165 5.07681C11.7529 5.11221 11.7757 5.14665 11.7998 5.19128C11.8152 5.21161 11.8152 5.21161 11.8313 5.22876C11.84 5.23842 11.84 5.23842 11.8488 5.24826C11.8619 5.2625 11.875 5.2767 11.8881 5.29089C11.8949 5.29832 11.9017 5.30576 11.9087 5.31341C11.918 5.32348 11.918 5.32348 11.9276 5.33375C11.945 5.35574 11.945 5.35574 11.9563 5.382C11.9876 5.43831 12.0379 5.4788 12.0842 5.52291C12.1275 5.56491 12.1594 5.602 12.1868 5.65565C12.2159 5.69493 12.2506 5.7294 12.2855 5.76354C12.2911 5.76897 12.2966 5.77441 12.3023 5.78001C12.3134 5.79077 12.3245 5.80146 12.3356 5.81207C12.372 5.84741 12.3951 5.88185 12.419 5.92653C12.449 5.96135 12.479 5.98288 12.5188 6.00426C12.5424 6.01773 12.5623 6.03536 12.5835 6.0523C12.5951 6.05912 12.6068 6.06577 12.6186 6.07225C12.6512 6.09099 12.6512 6.09099 12.6649 6.10573C12.6844 6.12389 12.7012 6.12824 12.7268 6.13513C12.7354 6.13754 12.744 6.13995 12.7529 6.14243C12.7608 6.14461 12.7688 6.14679 12.777 6.14904C12.8082 6.15882 12.8365 6.16907 12.8659 6.18327C12.9028 6.19909 12.9375 6.20153 12.9773 6.2012C12.9845 6.20126 12.9917 6.20132 12.9991 6.20138C13.0231 6.20153 13.047 6.20149 13.071 6.20144C13.0883 6.20151 13.1055 6.2016 13.1228 6.20169C13.1695 6.20192 13.2162 6.20197 13.263 6.20199C13.3119 6.20204 13.3609 6.20227 13.4098 6.20248C13.5026 6.20285 13.5953 6.20309 13.688 6.20326C13.8541 6.20359 14.0202 6.20415 14.1862 6.20475C14.2445 6.20496 14.3027 6.20511 14.361 6.20521C14.3973 6.20527 14.4335 6.20538 14.4698 6.20549C14.4866 6.20554 14.5034 6.20556 14.5202 6.20557C14.5431 6.20559 14.5661 6.20566 14.589 6.20575C14.5956 6.20574 14.6022 6.20573 14.609 6.20572C14.7156 6.20632 14.7156 6.20632 14.7603 6.23611C14.7797 6.24004 14.7797 6.24004 14.801 6.24121C14.8089 6.24189 14.8168 6.24257 14.8249 6.24327C14.8413 6.24453 14.8578 6.24577 14.8742 6.24697C14.9256 6.25145 14.965 6.26125 15.0118 6.28448C15.018 6.28707 15.0241 6.28966 15.0304 6.29233C15.0871 6.31745 15.1262 6.35464 15.1691 6.39876C15.1758 6.4054 15.1825 6.41204 15.1894 6.41888C15.2286 6.4586 15.2575 6.49591 15.2827 6.54569C15.2883 6.55633 15.2883 6.55633 15.294 6.56719C15.3001 6.57966 15.3062 6.59213 15.3123 6.6046C15.3204 6.62103 15.3291 6.63719 15.3378 6.65332C15.3604 6.70293 15.3613 6.75219 15.3614 6.80611C15.3614 6.81264 15.3614 6.81917 15.3614 6.8259C15.3614 6.84777 15.3614 6.86964 15.3614 6.89151C15.3614 6.90735 15.3614 6.9232 15.3614 6.93904C15.3614 6.98257 15.3614 7.0261 15.3614 7.06963C15.3614 7.11658 15.3614 7.16352 15.3614 7.21047C15.3615 7.30244 15.3615 7.39441 15.3614 7.48638C15.3614 7.56113 15.3614 7.63587 15.3614 7.71061C15.3614 7.72656 15.3614 7.72656 15.3614 7.74283C15.3614 7.76443 15.3614 7.78602 15.3614 7.80762C15.3615 8.01022 15.3614 8.21282 15.3614 8.41543C15.3613 8.5893 15.3613 8.76317 15.3614 8.93705C15.3614 9.1389 15.3615 9.34076 15.3614 9.54261C15.3614 9.56413 15.3614 9.58566 15.3614 9.60718C15.3614 9.61777 15.3614 9.62836 15.3614 9.63927C15.3614 9.71392 15.3614 9.78858 15.3615 9.86323C15.3615 9.95421 15.3615 10.0452 15.3614 10.1362C15.3614 10.1826 15.3614 10.229 15.3614 10.2754C15.3614 10.3179 15.3614 10.3604 15.3614 10.4029C15.3614 10.4183 15.3614 10.4337 15.3614 10.449C15.3614 10.47 15.3614 10.4909 15.3614 10.5118C15.3613 10.5234 15.3613 10.535 15.3613 10.5469C15.3581 10.6362 15.3581 10.6362 15.3311 10.6767C15.3291 10.6948 15.3272 10.713 15.326 10.7313C15.3141 10.8979 15.2275 10.9969 15.1081 11.1061C15.0398 11.1627 14.9507 11.1929 14.8667 11.2184C14.8564 11.2217 14.8461 11.225 14.8355 11.2284C14.7721 11.244 14.7063 11.2406 14.6414 11.2405C14.6265 11.2406 14.6115 11.2407 14.5966 11.2407C14.5645 11.2409 14.5325 11.241 14.5004 11.241C14.4498 11.2411 14.3991 11.2413 14.3485 11.2415C14.2319 11.242 14.1154 11.2424 13.9988 11.2427C13.8918 11.243 13.7847 11.2433 13.6777 11.2438C13.6273 11.244 13.5769 11.2442 13.5266 11.2442C13.4953 11.2443 13.464 11.2444 13.4328 11.2446C13.4183 11.2446 13.4037 11.2447 13.3892 11.2446C13.3694 11.2446 13.3496 11.2448 13.3299 11.2449C13.3188 11.2449 13.3077 11.2449 13.2963 11.245C13.2689 11.2448 13.2689 11.2448 13.2511 11.2668C13.1823 11.2778 13.1141 11.2779 13.0446 11.2779C13.0269 11.2779 13.0269 11.2779 13.0089 11.278C12.9764 11.2781 12.9439 11.2781 12.9114 11.2781C12.8762 11.2782 12.8411 11.2782 12.806 11.2783C12.7451 11.2785 12.6843 11.2786 12.6235 11.2787C12.5356 11.2788 12.4476 11.279 12.3596 11.2793C12.2169 11.2796 12.0741 11.28 11.9314 11.2803C11.9228 11.2803 11.9143 11.2803 11.9055 11.2803C11.7842 11.2806 11.6629 11.2808 11.5416 11.281C11.533 11.281 11.5245 11.2811 11.5156 11.2811C11.5071 11.2811 11.4986 11.2811 11.4898 11.2811C11.3474 11.2814 11.2051 11.2817 11.0628 11.2821C10.975 11.2823 10.8873 11.2825 10.7995 11.2826C10.7394 11.2827 10.6793 11.2828 10.6193 11.283C10.5846 11.2831 10.5499 11.2832 10.5152 11.2832C10.4777 11.2832 10.4401 11.2833 10.4026 11.2835C10.3915 11.2835 10.3805 11.2835 10.3691 11.2834C10.3591 11.2835 10.3491 11.2836 10.3388 11.2836C10.3258 11.2837 10.3258 11.2837 10.3125 11.2837C10.2879 11.2847 10.2879 11.2847 10.2616 11.3055C10.194 11.3173 10.124 11.3166 10.0555 11.3166C10.0413 11.3166 10.0413 11.3166 10.0269 11.3167C9.99562 11.3168 9.96434 11.3168 9.93305 11.3168C9.91049 11.3169 9.88793 11.317 9.86537 11.317C9.81696 11.3172 9.76856 11.3173 9.72015 11.3174C9.65013 11.3175 9.58011 11.3177 9.51009 11.3179C9.39642 11.3183 9.28275 11.3187 9.16908 11.319C9.16229 11.319 9.1555 11.319 9.14851 11.319C9.05196 11.3193 8.95542 11.3195 8.85887 11.3197C8.85206 11.3197 8.84524 11.3198 8.83823 11.3198C8.83142 11.3198 8.82462 11.3198 8.81761 11.3198C8.70424 11.3201 8.59088 11.3204 8.47752 11.3208C8.40141 11.3211 8.32531 11.3212 8.24921 11.3213C8.20199 11.3214 8.15477 11.3216 8.10755 11.3218C8.0856 11.3219 8.06364 11.3219 8.04169 11.3219C8.01182 11.3219 7.98194 11.322 7.95207 11.3222C7.94331 11.3222 7.93454 11.3222 7.92551 11.3221C7.91753 11.3222 7.90955 11.3223 7.90133 11.3223C7.89443 11.3223 7.88754 11.3224 7.88043 11.3224C7.85903 11.3239 7.85903 11.3239 7.83322 11.3442C7.77508 11.3543 7.718 11.3552 7.6591 11.355C7.6449 11.355 7.6449 11.355 7.63041 11.355C7.59883 11.3551 7.56725 11.355 7.53567 11.355C7.51297 11.355 7.49028 11.355 7.46758 11.355C7.40606 11.355 7.34454 11.3549 7.28302 11.3548C7.22521 11.3548 7.16741 11.3548 7.1096 11.3548C6.99514 11.3547 6.88068 11.3547 6.76622 11.3546C6.65507 11.3545 6.54392 11.3544 6.43277 11.3544C6.42591 11.3544 6.41905 11.3544 6.41199 11.3544C6.37758 11.3544 6.34318 11.3544 6.30877 11.3543C6.0236 11.3542 5.73843 11.3541 5.45325 11.3539C5.45436 11.3694 5.45559 11.3849 5.45688 11.4004C5.45789 11.4134 5.45789 11.4134 5.45892 11.4266C5.46163 11.453 5.46163 11.453 5.48227 11.4796C5.48787 11.511 5.49148 11.5425 5.49524 11.5742C5.50191 11.6068 5.5123 11.6263 5.53065 11.6538C5.53685 11.6658 5.54291 11.6779 5.54879 11.69C5.55209 11.6966 5.5554 11.7032 5.5588 11.71C5.56609 11.7246 5.57321 11.7393 5.58019 11.7541C5.584 11.7617 5.5878 11.7693 5.59172 11.7771C5.59507 11.784 5.59843 11.791 5.60189 11.7981C5.61761 11.8208 5.61761 11.8208 5.64871 11.8351C5.68787 11.8569 5.71638 11.8846 5.74716 11.9168C5.7555 11.9253 5.7555 11.9253 5.76402 11.934C5.78164 11.952 5.79916 11.97 5.81666 11.9881C5.83976 12.012 5.86297 12.0358 5.88623 12.0595C5.89143 12.065 5.89663 12.0704 5.90199 12.076C5.93372 12.1083 5.96283 12.1284 6.00471 12.1472C6.02746 12.165 6.02746 12.165 6.04945 12.1852C6.06184 12.1966 6.06184 12.1966 6.07447 12.2083C6.09379 12.2269 6.11273 12.2456 6.13146 12.2647C6.13653 12.2699 6.1416 12.2751 6.14682 12.2804C6.15665 12.2905 6.16641 12.3007 6.17608 12.3109C6.20678 12.3426 6.236 12.3606 6.2756 12.3793C6.32451 12.4169 6.3678 12.4616 6.41097 12.5055C6.42116 12.5159 6.42116 12.5159 6.43155 12.5264C6.44508 12.5402 6.45853 12.5541 6.4719 12.568C6.50771 12.6046 6.53814 12.6287 6.58519 12.6502C6.61032 12.6704 6.61032 12.6704 6.63417 12.6925C6.64674 12.7041 6.64674 12.7041 6.65956 12.7159C6.67578 12.7314 6.69144 12.7475 6.70673 12.7639C6.7282 12.7837 6.74148 12.7913 6.76716 12.8034C6.83135 12.8384 6.87999 12.8909 6.93089 12.9425C6.94809 12.9599 6.96548 12.9771 6.98291 12.9943C6.99396 13.0053 7.00499 13.0164 7.01602 13.0275C7.02119 13.0326 7.02637 13.0377 7.03171 13.043C7.06006 13.0721 7.07554 13.0929 7.0786 13.1339C7.08818 13.1371 7.09775 13.1403 7.10762 13.1436C7.11758 13.1596 7.12721 13.1757 7.13665 13.192C7.1581 13.2165 7.18041 13.24 7.20286 13.2636C7.22475 13.29 7.23797 13.316 7.25274 13.3468C7.26072 13.3562 7.26871 13.3655 7.27693 13.3752C7.30271 13.4068 7.31517 13.4348 7.33014 13.4725C7.33605 13.4849 7.3421 13.4972 7.34828 13.5094C7.35152 13.5159 7.35477 13.5223 7.35811 13.529C7.36572 13.5438 7.37349 13.5586 7.38139 13.5733C7.40593 13.6199 7.42244 13.6617 7.4321 13.7135C7.43896 13.7447 7.45246 13.7725 7.46559 13.8015C7.492 13.8745 7.50627 13.9427 7.51063 14.0199C7.51259 14.0458 7.51259 14.0458 7.53331 14.0724C7.54336 14.1165 7.54442 14.16 7.54439 14.205C7.54444 14.2159 7.54444 14.2159 7.54449 14.227C7.54458 14.2508 7.5446 14.2746 7.54461 14.2984C7.54464 14.3151 7.54467 14.3317 7.54471 14.3484C7.54476 14.3832 7.54478 14.4181 7.54478 14.4529C7.54478 14.4975 7.54491 14.542 7.54507 14.5865C7.54518 14.6209 7.5452 14.6552 7.5452 14.6896C7.54521 14.706 7.54525 14.7224 7.54532 14.7388C7.54542 14.7619 7.54539 14.7849 7.54533 14.8079C7.54539 14.8146 7.54544 14.8212 7.5455 14.8281C7.54478 14.9413 7.54478 14.9413 7.51396 14.9721C7.51131 14.9912 7.50894 15.0103 7.5067 15.0295C7.49744 15.0927 7.47757 15.1396 7.44624 15.1946C7.4395 15.2078 7.43284 15.2211 7.42628 15.2345C7.42315 15.2407 7.42002 15.2469 7.4168 15.2533C7.41056 15.2659 7.40449 15.2785 7.39858 15.2913C7.37857 15.3336 7.35528 15.3695 7.32591 15.4059C7.3093 15.4278 7.3093 15.4278 7.29376 15.4584C7.2737 15.4937 7.2487 15.5221 7.2199 15.5505C7.21496 15.5555 7.21003 15.5605 7.20494 15.5656C7.19456 15.576 7.18414 15.5863 7.17369 15.5967C7.15785 15.6124 7.14217 15.6282 7.1265 15.644C7.11632 15.6542 7.10614 15.6644 7.09594 15.6745C7.09134 15.6792 7.08673 15.6838 7.08198 15.6886C7.04798 15.7219 7.01365 15.7429 6.97218 15.7654C6.95862 15.7762 6.94529 15.7872 6.93227 15.7986C6.87222 15.8466 6.80163 15.8682 6.7291 15.891C6.70334 15.9001 6.6829 15.911 6.65956 15.925C6.60663 15.9526 6.55483 15.9578 6.4962 15.9624C6.46043 15.9654 6.44155 15.9676 6.41104 15.9879C6.36686 15.9979 6.3232 15.9991 6.27809 15.9992C6.27106 15.9992 6.26402 15.9993 6.25677 15.9993C6.24196 15.9993 6.22715 15.9994 6.21233 15.9994C6.18987 15.9994 6.16741 15.9996 6.14495 15.9997C6.13048 15.9998 6.116 15.9998 6.10153 15.9998C6.09161 15.9999 6.09161 15.9999 6.08149 16C5.96792 15.9995 5.96792 15.9995 5.93699 15.9685C5.90514 15.9633 5.87321 15.9592 5.84122 15.955C5.81121 15.9492 5.81121 15.9492 5.78219 15.9298C5.76559 15.925 5.74883 15.9206 5.732 15.9165C5.68331 15.9038 5.6424 15.886 5.59837 15.8621C5.58548 15.8561 5.57258 15.85 5.55967 15.844C5.52463 15.8266 5.49483 15.805 5.4644 15.7805C5.44285 15.764 5.44285 15.764 5.41349 15.7501C5.36028 15.7203 5.3198 15.6748 5.27729 15.6317C5.26439 15.619 5.26439 15.619 5.25123 15.606C5.20708 15.5617 5.1712 15.5217 5.14366 15.4655C5.13915 15.4571 5.13463 15.4488 5.12998 15.4401C5.1221 15.4254 5.11424 15.4107 5.1064 15.396C5.09647 15.3769 5.09647 15.3769 5.07594 15.3687C5.0463 15.3233 5.03292 15.2765 5.02265 15.2239C5.01627 15.1976 5.00397 15.1782 4.98887 15.1559C4.95331 15.0916 4.94883 15.0335 4.94779 14.9611C4.94747 14.946 4.94715 14.9309 4.94682 14.9157C4.94636 14.8921 4.94593 14.8685 4.94555 14.8449C4.94517 14.8219 4.94467 14.799 4.94416 14.7761C4.94408 14.769 4.94399 14.7619 4.94391 14.7546C4.94304 14.7188 4.94152 14.7027 4.92114 14.6722C4.91028 14.6255 4.9101 14.5791 4.91022 14.5314C4.91021 14.5231 4.91019 14.5149 4.91017 14.5064C4.91013 14.4787 4.91015 14.451 4.91017 14.4233C4.91016 14.4033 4.91013 14.3832 4.91011 14.3632C4.91005 14.3081 4.91005 14.253 4.91006 14.1979C4.91006 14.1385 4.91001 14.0791 4.90996 14.0198C4.90988 13.9034 4.90986 13.787 4.90985 13.6706C4.90985 13.576 4.90983 13.4815 4.9098 13.3869C4.90979 13.3597 4.90978 13.3325 4.90977 13.3052C4.90977 13.2985 4.90977 13.2917 4.90976 13.2847C4.9097 13.0944 4.90967 12.9041 4.90967 12.7137C4.90967 12.7065 4.90967 12.6994 4.90967 12.692C4.90967 12.6556 4.90967 12.6192 4.90967 12.5829C4.90967 12.5756 4.90967 12.5684 4.90967 12.561C4.90967 12.5464 4.90968 12.5317 4.90968 12.5171C4.90968 12.2898 4.90961 12.0625 4.90948 11.8352C4.90933 11.5798 4.90924 11.3244 4.90925 11.0691C4.90925 11.0418 4.90926 11.0146 4.90926 10.9874C4.90926 10.9807 4.90926 10.974 4.90926 10.9671C4.90926 10.8592 4.90919 10.7513 4.90911 10.6434C4.90903 10.5349 4.90902 10.4265 4.90908 10.3181C4.90911 10.2593 4.90911 10.2006 4.90903 10.1418C4.90896 10.088 4.90897 10.0343 4.90905 9.98051C4.90907 9.96104 4.90905 9.94157 4.909 9.92211C4.90893 9.89567 4.90898 9.86923 4.90906 9.84279C4.90901 9.83522 4.90896 9.82765 4.90891 9.81985C4.90943 9.73943 4.93105 9.66454 4.96407 9.59131C4.97702 9.56205 4.98522 9.53281 4.9931 9.50182C5.01277 9.4276 5.04396 9.37228 5.09098 9.31203C5.10409 9.29439 5.11494 9.27678 5.12552 9.25754C5.14246 9.22762 5.16047 9.20351 5.18236 9.17712C5.18844 9.16814 5.18844 9.16814 5.19464 9.15898C5.22618 9.11311 5.25738 9.08649 5.30462 9.05751C5.3304 9.03966 5.35055 9.01957 5.37223 8.99694C5.40129 8.96682 5.42687 8.94459 5.4641 8.92585C5.48775 8.91292 5.50883 8.89727 5.53065 8.88145C5.58623 8.84203 5.64028 8.82132 5.70479 8.79982C5.71946 8.79264 5.71946 8.79264 5.73442 8.78531C5.77766 8.76597 5.82368 8.76224 5.87032 8.75655C5.90006 8.75303 5.90006 8.75303 5.92731 8.7321C5.96801 8.72307 6.00703 8.7212 6.04863 8.72114C6.06126 8.7211 6.0739 8.72106 6.08691 8.72101C6.10087 8.72102 6.11482 8.72102 6.12878 8.72102C6.14365 8.72099 6.15852 8.72096 6.1734 8.72092C6.21425 8.72083 6.25509 8.72079 6.29594 8.72077C6.34 8.72073 6.38406 8.72064 6.42812 8.72055C6.50446 8.72041 6.58079 8.72029 6.65713 8.7202C6.76753 8.72007 6.87793 8.71986 6.98832 8.71964C7.16748 8.71927 7.34664 8.71893 7.5258 8.71862C7.53652 8.71861 7.54724 8.71859 7.55829 8.71857C7.71058 8.71831 7.86288 8.71808 8.01517 8.71786C8.0259 8.71784 8.03663 8.71783 8.04769 8.71781C8.05841 8.7178 8.06913 8.71778 8.08017 8.71777C8.25869 8.71751 8.43721 8.71717 8.61573 8.71678C8.7259 8.71654 8.83607 8.71636 8.94624 8.71627C9.02166 8.71619 9.09708 8.71605 9.17251 8.71586C9.21607 8.71575 9.25963 8.71567 9.30319 8.71568C9.34302 8.71568 9.38285 8.7156 9.42269 8.71544C9.43714 8.7154 9.45159 8.71539 9.46604 8.71542C9.4856 8.71545 9.50517 8.71536 9.52473 8.71526C9.53562 8.71524 9.54651 8.71522 9.55773 8.7152C9.58643 8.71469 9.58643 8.71469 9.61337 8.6934C9.67171 8.681 9.73296 8.68223 9.79235 8.68252C9.79999 8.68248 9.80764 8.68244 9.81552 8.6824C9.96057 8.68264 9.96057 8.68264 9.99068 8.71275C10.0189 8.7149 10.0463 8.7159 10.0745 8.71608C10.0871 8.71629 10.0871 8.71629 10.0999 8.7165C10.1268 8.71696 10.1537 8.71729 10.1805 8.71759C10.2157 8.71799 10.2509 8.71851 10.2861 8.7191C10.2981 8.71918 10.2981 8.71918 10.3104 8.71925C10.4346 8.72135 10.4346 8.72135 10.4647 8.75145C10.4966 8.75667 10.5285 8.76079 10.5605 8.76501C10.5905 8.7708 10.5905 8.7708 10.6195 8.79015C10.6361 8.79503 10.6529 8.79941 10.6697 8.80345C10.7184 8.81619 10.7594 8.83386 10.8034 8.85787C10.8162 8.86437 10.8291 8.87082 10.8421 8.87721C10.9195 8.91591 10.9195 8.91591 10.9389 8.92578C10.9514 8.93192 10.964 8.93777 10.9768 8.94324C11.0295 8.96663 11.067 9.00044 11.1082 9.04051C11.1341 9.06258 11.1598 9.07533 11.1903 9.09005C11.2108 9.1049 11.2108 9.1049 11.2278 9.11968C11.2336 9.12458 11.2394 9.12948 11.2453 9.13453C11.2581 9.1481 11.2581 9.1481 11.2581 9.16745C11.2644 9.16745 11.2708 9.16745 11.2774 9.16745C11.2903 9.18357 11.3032 9.19969 11.3161 9.21582C11.3264 9.2247 11.3369 9.23337 11.3476 9.24182C11.3563 9.2492 11.3651 9.25658 11.3742 9.26419C11.3742 9.27058 11.3742 9.27696 11.3742 9.28354C11.3805 9.28354 11.3869 9.28354 11.3935 9.28354C11.3979 9.29292 11.4023 9.3023 11.4068 9.31196C11.4192 9.34227 11.4192 9.34227 11.4419 9.35126C11.4463 9.35861 11.4506 9.36595 11.4551 9.37352C11.4712 9.40019 11.488 9.41857 11.5105 9.44007C11.5219 9.45116 11.5219 9.45116 11.5335 9.46248C11.5494 9.47777 11.5652 9.49303 11.5812 9.50828C11.6461 9.57171 11.6461 9.57171 11.6656 9.60831C11.7113 9.69193 11.7881 9.7561 11.8565 9.82102C11.8904 9.85407 11.918 9.88382 11.9394 9.92624C11.968 9.98204 12.0117 10.0209 12.0568 10.0635C12.1095 10.1135 12.1539 10.157 12.1868 10.222C12.2159 10.2611 12.2504 10.2955 12.2852 10.3295C12.2964 10.3404 12.3075 10.3513 12.3187 10.3622C12.327 10.3704 12.327 10.3704 12.3355 10.3787C12.3695 10.4124 12.3949 10.4452 12.418 10.4873C12.4377 10.5154 12.4661 10.526 12.4964 10.5412C12.5042 10.5476 12.512 10.554 12.52 10.5606C12.5467 10.5814 12.5733 10.595 12.6038 10.6095C12.6222 10.6186 12.6222 10.6186 12.6452 10.6343C12.6805 10.6543 12.6805 10.6543 12.7673 10.667C12.7673 9.36122 12.7673 8.05547 12.7673 6.71015C12.1703 6.71015 11.5733 6.71015 10.9581 6.71015C10.8517 6.70048 10.8517 6.70048 10.8227 6.68113C10.7943 6.67818 10.7943 6.67818 10.7615 6.67863C10.7552 6.67859 10.7489 6.67855 10.7425 6.67852C10.7213 6.67842 10.7002 6.67846 10.679 6.6785C10.6637 6.67846 10.6485 6.67841 10.6332 6.67835C10.5912 6.67822 10.5491 6.6782 10.5071 6.67821C10.4618 6.67819 10.4164 6.67807 10.3711 6.67795C10.2926 6.67777 10.214 6.67766 10.1355 6.67759C10.0218 6.67749 9.90818 6.67728 9.79453 6.67703C9.61006 6.67664 9.42559 6.67633 9.24111 6.67607C9.23007 6.67605 9.21902 6.67604 9.20764 6.67602C9.19105 6.676 9.19105 6.676 9.17412 6.67597C9.01739 6.67576 8.86066 6.67552 8.70393 6.67526C8.6874 6.67523 8.6874 6.67523 8.67053 6.6752C8.48681 6.67489 8.30309 6.67455 8.11937 6.67418C8.006 6.67396 7.89263 6.67378 7.77926 6.67364C7.70157 6.67355 7.62389 6.67343 7.5462 6.67328C7.50137 6.67319 7.45653 6.67312 7.41169 6.6731C7.37064 6.67307 7.32959 6.673 7.28855 6.6729C7.2737 6.67287 7.25885 6.67286 7.244 6.67286C7.2238 6.67287 7.20361 6.67281 7.18342 6.67274C7.1722 6.67273 7.16099 6.67271 7.14943 6.6727C7.06081 6.66927 7.06081 6.66927 7.02055 6.64243C7.00055 6.63949 7.00055 6.63949 6.97828 6.63987C6.96964 6.63979 6.961 6.63971 6.9521 6.63963C6.94265 6.63964 6.9332 6.63965 6.92346 6.63966C6.91348 6.63959 6.9035 6.63952 6.89322 6.63945C6.87153 6.63932 6.84983 6.63924 6.82813 6.63919C6.79377 6.63911 6.75941 6.63891 6.72504 6.63868C6.65202 6.63821 6.579 6.63789 6.50598 6.6376C6.42153 6.63725 6.33708 6.63684 6.25263 6.63628C6.21882 6.63609 6.18502 6.63601 6.15121 6.63593C6.13038 6.6358 6.10955 6.63567 6.08871 6.63554C6.07936 6.63555 6.07 6.63555 6.06036 6.63556C5.92892 6.63437 5.92892 6.63437 5.89829 6.60374C5.87917 6.60108 5.86001 6.59872 5.84084 6.59648C5.77765 6.58722 5.73076 6.56734 5.67577 6.53601C5.66251 6.52928 5.64921 6.52262 5.63586 6.51606C5.62654 6.51137 5.62654 6.51137 5.61704 6.50658C5.60447 6.50034 5.59182 6.49427 5.5791 6.48836C5.53678 6.46835 5.50087 6.44506 5.4644 6.41569C5.4425 6.39909 5.4425 6.39909 5.41192 6.38354C5.37661 6.36349 5.34824 6.33849 5.31981 6.30969C5.31236 6.30228 5.31236 6.30228 5.30476 6.29472C5.29436 6.28434 5.284 6.27393 5.27367 6.26348C5.25798 6.24764 5.24215 6.23196 5.22629 6.21629C5.21614 6.20611 5.20599 6.19593 5.19585 6.18573C5.19118 6.18113 5.18652 6.17652 5.18171 6.17177C5.1484 6.13777 5.1274 6.10344 5.10496 6.06197C5.09418 6.04842 5.08312 6.03508 5.0717 6.02206C5.03001 5.9699 5.00989 5.91189 4.98887 5.84913C4.98554 5.83943 4.98221 5.82973 4.97878 5.81973C4.96694 5.78311 4.95754 5.74603 4.94805 5.70874C4.94108 5.68262 4.94108 5.68262 4.92114 5.65565C4.91748 5.63416 4.91748 5.63416 4.9157 5.60939C4.91498 5.60045 4.91425 5.59151 4.91351 5.58229C4.91215 5.56347 4.91079 5.54465 4.90943 5.52584C4.90834 5.51242 4.90834 5.51242 4.90724 5.49874C4.90665 5.49056 4.90606 5.48239 4.90546 5.47397C4.90283 5.44978 4.90283 5.44978 4.88244 5.42346C4.86997 5.35554 4.86992 5.29534 4.89212 5.22997C4.89691 5.22518 4.89691 5.22518 4.90179 5.2203C4.90411 5.18291 4.90562 5.14559 4.9068 5.10815C4.90949 5.04309 4.92247 4.98707 4.9411 4.92463C4.95103 4.89139 4.95103 4.89139 4.9544 4.8563C4.96011 4.82205 4.97001 4.80394 4.98887 4.77528C4.99539 4.75918 5.00183 4.74305 5.00821 4.7269C5.01744 4.70771 5.02701 4.68874 5.03675 4.6698C5.04318 4.65695 5.0493 4.64394 5.05496 4.63073C5.10102 4.52664 5.19943 4.44658 5.27887 4.36686C5.29494 4.3507 5.31091 4.33443 5.32687 4.31816C5.33727 4.3077 5.34768 4.29724 5.35809 4.2868C5.36276 4.28201 5.36743 4.27722 5.37224 4.27229C5.41601 4.22879 5.46535 4.20243 5.52037 4.17547C5.52684 4.17227 5.53331 4.16908 5.53998 4.16579C5.54648 4.1626 5.55298 4.15941 5.55967 4.15612C5.57258 4.14968 5.58548 4.14323 5.59837 4.13677C5.65642 4.10774 5.65642 4.10774 5.71447 4.07872C5.72308 4.07376 5.7317 4.06879 5.74058 4.06368C5.77964 4.04658 5.81444 4.04287 5.85656 4.03942C5.91422 4.03538 5.91422 4.03538 5.96601 4.011C6.00992 4.001 6.05313 3.99994 6.09796 4.00007Z" fill="white"/>
</svg>
