<svg width="20" height="20" viewBox="0 0 20 20" fill="none" xmlns="http://www.w3.org/2000/svg">
<rect width="20" height="20" fill="#E6007A"/>
<g clip-path="url(#clip0_4963_725)">
<path d="M9.99979 5.9364C11.3766 5.9364 12.4927 5.27906 12.4927 4.4682C12.4927 3.65733 11.3766 3 9.99979 3C8.62297 3 7.50684 3.65733 7.50684 4.4682C7.50684 5.27906 8.62297 5.9364 9.99979 5.9364Z" fill="white"/>
<path d="M9.99979 16.9989C11.3766 16.9989 12.4927 16.3416 12.4927 15.5307C12.4927 14.7198 11.3766 14.0625 9.99979 14.0625C8.62297 14.0625 7.50684 14.7198 7.50684 15.5307C7.50684 16.3416 8.62297 16.9989 9.99979 16.9989Z" fill="white"/>
<path d="M6.52598 7.96858C7.21439 6.7612 7.20993 5.45354 6.51601 5.04783C5.82208 4.64213 4.70149 5.29201 4.01308 6.49939C3.32467 7.70677 3.32914 9.01444 4.02306 9.42014C4.71698 9.82585 5.83758 9.17596 6.52598 7.96858Z" fill="white"/>
<path d="M15.9862 13.4998C16.6746 12.2924 16.6705 10.985 15.9771 10.5796C15.2836 10.1741 14.1634 10.8242 13.475 12.0316C12.7866 13.239 12.7907 14.5464 13.4841 14.9519C14.1776 15.3573 15.2978 14.7072 15.9862 13.4998Z" fill="white"/>
<path d="M6.51698 14.9512C7.2109 14.5455 7.21537 13.2378 6.52696 12.0304C5.83855 10.8231 4.71795 10.1732 4.02403 10.5789C3.33011 10.9846 3.32564 12.2923 4.01405 13.4996C4.70246 14.707 5.82306 15.3569 6.51698 14.9512Z" fill="white"/>
<path d="M15.978 9.42044C16.6715 9.015 16.6756 7.70756 15.9872 6.50018C15.2988 5.2928 14.1785 4.6427 13.4851 5.04813C12.7916 5.45356 12.7876 6.761 13.476 7.96838C14.1644 9.17576 15.2846 9.82587 15.978 9.42044Z" fill="white"/>
</g>
<defs>
<clipPath id="clip0_4963_725">
<rect width="13" height="14" fill="white" transform="translate(3.5 3)"/>
</clipPath>
</defs>
</svg>
