<svg width="20" height="20" viewBox="0 0 20 20" fill="none" xmlns="http://www.w3.org/2000/svg">
<g clip-path="url(#clip0_5510_10120)">
<rect width="20" height="20" fill="url(#paint0_linear_5510_10120)"/>
<path d="M20 0H0V20H20V0Z" fill="url(#paint1_linear_5510_10120)"/>
<path d="M9.33158 10.4963C9.2938 10.4963 9.25602 10.4932 9.21815 10.4869C9.38201 10.1402 9.53958 9.8031 9.69079 9.47539C9.84208 9.14131 9.97444 8.83568 10.0879 8.5584C10.2013 8.28112 10.2927 8.03533 10.362 7.82105C10.4314 7.60681 10.466 7.43981 10.466 7.32007C10.466 7.20033 10.4471 7.10265 10.4093 7.02702C10.3714 6.94509 10.3274 6.88521 10.2769 6.84742C10.2265 6.80329 10.1698 6.77494 10.1068 6.76234C10.0437 6.74343 9.99024 6.73397 9.94609 6.73397C9.78223 6.73397 9.5963 6.82851 9.38829 7.01757C9.18665 7.20032 8.96922 7.4461 8.73609 7.7549C8.50915 8.06369 8.27287 8.41976 8.02709 8.82311C7.78758 9.2201 7.54808 9.63288 7.30863 10.0615L4.51993 15.1661C4.45061 15.2985 4.39704 15.4402 4.35922 15.5915C4.32141 15.7427 4.30251 15.8909 4.30251 16.0358C4.30251 16.1367 4.31511 16.2438 4.34031 16.3572C4.37183 16.4707 4.42224 16.5747 4.49156 16.6692C4.56089 16.7637 4.65857 16.8424 4.78461 16.9055C4.91066 16.9685 5.07452 17 5.27619 17C5.52197 17 5.74884 16.9118 5.95683 16.7353C6.16478 16.5589 6.36016 16.3289 6.54292 16.0452C6.72567 15.7554 6.89268 15.4308 7.04393 15.0716C7.19518 14.706 7.34014 14.3374 7.4788 13.9656C7.61744 13.5938 7.74666 13.2346 7.86637 12.8879C7.98608 12.535 8.10273 12.2293 8.21616 11.971C8.4178 12.6264 8.64788 13.2503 8.90623 13.8427C9.16458 14.4287 9.45137 14.9424 9.76644 15.3835C10.0816 15.8247 10.4314 16.1744 10.8158 16.4328C11.2002 16.6912 11.6193 16.8204 12.073 16.8204C12.6277 16.8204 13.2137 16.6818 13.8314 16.4044C14.4552 16.1209 15.0918 15.6735 15.7409 15.0621C15.9614 14.8542 16.1159 14.6557 16.2041 14.4666C16.2987 14.2713 16.3459 14.101 16.3459 13.9561C16.3459 13.8049 16.3018 13.6851 16.2136 13.5969C16.1253 13.5087 16.0182 13.4645 15.8922 13.4645C15.6904 13.4645 15.4919 13.5748 15.2966 13.7954C15.0886 14.0727 14.8428 14.3153 14.5592 14.5233C14.3197 14.706 14.0205 14.8731 13.6612 15.0243C13.3019 15.1756 12.8923 15.2512 12.4323 15.2512H12.2999C12.2558 15.2512 12.2085 15.248 12.1582 15.2417C11.906 15.2228 11.6666 15.0968 11.4397 14.8636C11.2128 14.6305 11.0049 14.35 10.8158 14.0222C10.633 13.6883 10.4754 13.3386 10.3431 12.973C10.2171 12.6012 10.1256 12.2672 10.0689 11.971C10.4723 11.9016 10.8882 11.7882 11.3168 11.6306C11.7517 11.4732 12.1739 11.2809 12.5835 11.054C12.9932 10.8272 13.3776 10.5688 13.7368 10.2789C14.1023 9.98266 14.4206 9.66132 14.6916 9.31468C14.9626 8.96175 15.1769 8.58675 15.3344 8.18977C15.4982 7.78641 15.5802 7.36417 15.5802 6.92303C15.5802 6.26762 15.4447 5.69414 15.1737 5.20258C14.909 4.71102 14.5498 4.30453 14.096 3.98312C13.6423 3.65541 13.1192 3.40964 12.5268 3.24578C11.9407 3.08193 11.3262 3 10.6834 3C10.028 3 9.40722 3.06933 8.82116 3.20797C8.235 3.34031 7.69309 3.51992 7.19518 3.7468C6.70361 3.96737 6.25932 4.22576 5.86228 4.52195C5.46525 4.81184 5.12809 5.11435 4.85079 5.42944C4.5798 5.74455 4.36868 6.05965 4.21742 6.37475C4.07248 6.68986 4 6.98291 4 7.2539C4 7.54379 4.07878 7.77066 4.23633 7.93447C4.39389 8.09205 4.63022 8.17083 4.94532 8.17083C5.1785 8.17083 5.37387 8.11726 5.53142 8.01012C5.68897 7.90297 5.83077 7.76437 5.95683 7.59421C6.08917 7.42405 6.2152 7.22868 6.33495 7.0081C6.45468 6.78754 6.58702 6.56065 6.73198 6.32749C6.88323 6.09431 7.05968 5.86743 7.26137 5.64686C7.46929 5.42629 7.72145 5.23093 8.01757 5.06077C8.32007 4.89062 8.67615 4.75198 9.08579 4.64484C9.5018 4.5377 9.99652 4.48414 10.57 4.48414C11.0804 4.48414 11.5184 4.54401 11.884 4.66374C12.2558 4.78348 12.5583 4.94419 12.7915 5.14585C13.0309 5.34752 13.2043 5.58385 13.3115 5.85484C13.4249 6.12582 13.4816 6.41256 13.4816 6.71506C13.4816 7.1373 13.3744 7.57215 13.1602 8.01954C12.9522 8.46705 12.6654 8.87354 12.2999 9.23903C11.9344 9.60452 11.5059 9.90702 11.0143 10.1465C10.529 10.3797 10.0122 10.4963 9.46394 10.4963H9.33158Z" fill="white"/>
</g>
<defs>
<linearGradient id="paint0_linear_5510_10120" x1="10" y1="0" x2="10" y2="20" gradientUnits="userSpaceOnUse">
<stop stop-color="#BA24CB"/>
<stop offset="1" stop-color="#BA24CB" stop-opacity="0"/>
</linearGradient>
<linearGradient id="paint1_linear_5510_10120" x1="10" y1="0" x2="10" y2="20" gradientUnits="userSpaceOnUse">
<stop stop-color="#BF2AC3"/>
<stop offset="1" stop-color="#9F01F7"/>
</linearGradient>
<clipPath id="clip0_5510_10120">
<rect width="20" height="20" fill="white"/>
</clipPath>
</defs>
</svg>
