<svg width="20" height="20" viewBox="0 0 20 20" fill="none" xmlns="http://www.w3.org/2000/svg">
<rect width="20" height="20" fill="#004DE5"/>
<path fill-rule="evenodd" clip-rule="evenodd" d="M5.60059 4.92311V12.3264C5.60067 12.4648 5.63194 12.6012 5.69209 12.7259C5.75224 12.8505 5.83972 12.9601 5.94809 13.0465L9.45205 15.8481C9.57531 15.9464 9.72851 16 9.88643 16C10.0443 16 10.1975 15.9464 10.3208 15.8481L13.8248 13.0465C13.9331 12.9601 14.0206 12.8505 14.0807 12.7259C14.1409 12.6012 14.1722 12.4648 14.1723 12.3264V4.92311C14.1723 4.67828 14.0746 4.44349 13.9009 4.27037C13.7271 4.09726 13.4914 4 13.2456 4H6.52725C6.28149 4 6.04578 4.09726 5.872 4.27037C5.69822 4.44349 5.60059 4.67828 5.60059 4.92311Z" fill="white"/>
<path d="M12.3854 8.27678V6.66322C12.3854 6.44925 12.3011 6.24405 12.1511 6.09275C12.0011 5.94145 11.7977 5.85645 11.5856 5.85645H8.1865C7.97439 5.85645 7.77096 5.94145 7.62097 6.09275C7.47098 6.24405 7.38672 6.44925 7.38672 6.66322V11.345C7.38679 11.4659 7.41378 11.5852 7.4657 11.6941C7.5176 11.8031 7.59311 11.8988 7.68664 11.9743L8.9243 12.9768C8.93899 12.9888 8.95677 12.9964 8.97555 12.9986C8.99434 13.0008 9.01337 12.9977 9.03044 12.9894C9.04751 12.9812 9.0619 12.9682 9.07196 12.9521C9.08202 12.9359 9.08732 12.9172 9.08726 12.8981V9.58778C9.08726 9.56106 9.09779 9.53538 9.11654 9.51648C9.13529 9.49759 9.16071 9.48695 9.18723 9.48695H10.087C10.2461 9.48695 10.3987 9.55069 10.5111 9.66419C10.6236 9.77764 10.6868 9.93154 10.6868 10.092V12.8981C10.6869 12.9171 10.6922 12.9357 10.7022 12.9518C10.7122 12.9678 10.7266 12.9807 10.7435 12.989C10.7605 12.9972 10.7794 13.0004 10.7981 12.9982C10.8169 12.9961 10.8346 12.9887 10.8493 12.9768L12.087 11.9743C12.1805 11.8988 12.256 11.8031 12.3079 11.6941C12.3598 11.5852 12.3868 11.4659 12.3869 11.345V9.89035C12.3869 9.67638 12.3026 9.47117 12.1526 9.31985C12.0026 9.16856 11.7992 9.08355 11.5871 9.08355C11.799 9.08316 12.002 8.99799 12.1516 8.84674C12.3013 8.69546 12.3854 8.49048 12.3854 8.27678ZM10.086 8.68019H9.18623C9.15972 8.68019 9.13429 8.66955 9.11554 8.65065C9.09679 8.63172 9.08626 8.60608 9.08626 8.57932V6.76407C9.08626 6.73733 9.09679 6.71168 9.11554 6.69276C9.13429 6.67385 9.15972 6.66322 9.18623 6.66322H10.5859C10.6124 6.66322 10.6378 6.67385 10.6565 6.69276C10.6753 6.71168 10.6858 6.73733 10.6858 6.76407V8.07508C10.6858 8.23556 10.6226 8.38946 10.5101 8.50295C10.3976 8.61641 10.2451 8.68019 10.086 8.68019Z" fill="#004DE5"/>
</svg>
