<svg width="20" height="20" viewBox="0 0 20 20" fill="none" xmlns="http://www.w3.org/2000/svg">
<g clip-path="url(#clip0_4642_2547)">
<rect width="20" height="20" rx="10" fill="#FFEEDA"/>
<path d="M15.3052 12.2008V5.0341C15.2919 4.4341 14.8185 3.9541 14.2185 3.9541H6.73853C5.1252 3.98077 3.8252 5.30077 3.8252 6.92077C3.8252 7.46744 3.97186 7.9341 4.19853 8.34743C4.3852 8.68743 4.6852 9.00744 4.97853 9.2541C5.05853 9.32077 5.01853 9.2941 5.27186 9.4541C5.6252 9.66744 6.0252 9.7741 6.0252 9.7741V14.0608C6.03186 14.2608 6.05853 14.4608 6.1052 14.6408C6.27186 15.2408 6.69186 15.7074 7.25853 15.9341C7.49853 16.0274 7.7652 16.0941 8.05186 16.0941L14.0252 16.1141C15.2185 16.1141 16.1852 15.1474 16.1852 13.9541C16.1852 13.2274 15.8385 12.5941 15.3052 12.2008Z" fill="#FFEEDA"/>
<path d="M15.4454 13.9882C15.4188 14.7548 14.7921 15.3682 14.0254 15.3682L9.91211 15.3548C10.2388 14.9748 10.4388 14.4815 10.4388 13.9482C10.4388 13.1015 9.93211 12.5215 9.93211 12.5215H14.0254C14.8121 12.5215 15.4454 13.1615 15.4454 13.9482V13.9882Z" fill="#EBC28E"/>
<path d="M5.35836 8.63491C4.88503 8.18824 4.55169 7.60824 4.55169 6.91491V6.84158C4.59169 5.66824 5.55836 4.72158 6.73169 4.68158H14.2117C14.405 4.68824 14.565 4.82824 14.565 5.02824V11.3549C14.7384 11.3882 14.8184 11.4082 14.985 11.4682C15.1117 11.5149 15.2984 11.6216 15.2984 11.6216V5.02824C15.285 4.42824 14.8117 3.94824 14.2117 3.94824H6.73169C5.11836 3.97491 3.81836 5.29491 3.81836 6.91491C3.81836 7.85491 4.24503 8.66158 4.95169 9.22824C4.99836 9.26824 5.04503 9.31491 5.17169 9.31491C5.39169 9.31491 5.54503 9.14158 5.53836 8.94824C5.53169 8.78824 5.46503 8.72824 5.35836 8.63491Z" fill="#190602"/>
<path d="M14.025 11.7812H8.15829C7.76496 11.7812 7.44496 12.1078 7.44496 12.5012V13.3412C7.45829 13.7278 7.79163 14.0678 8.17829 14.0678H8.61163V13.3412H8.17829V12.5145C8.17829 12.5145 8.28496 12.5145 8.41829 12.5145C9.15829 12.5145 9.70496 13.2012 9.70496 13.9412C9.70496 14.5945 9.11163 15.4278 8.11829 15.3612C7.23163 15.3012 6.75829 14.5145 6.75829 13.9412V6.78784C6.75829 6.46784 6.49829 6.20117 6.17163 6.20117H5.58496V6.93451H6.01829V13.9412C5.99829 15.3678 7.03163 16.0878 8.11163 16.0878L14.025 16.1078C15.2183 16.1078 16.185 15.1412 16.185 13.9478C16.185 12.7545 15.2183 11.7812 14.025 11.7812ZM15.445 13.9878C15.4183 14.7545 14.7916 15.3678 14.025 15.3678L9.91163 15.3545C10.2383 14.9745 10.4383 14.4812 10.4383 13.9478C10.4383 13.1012 9.93163 12.5212 9.93163 12.5212H14.025C14.8116 12.5212 15.445 13.1612 15.445 13.9478V13.9878Z" fill="#190602"/>
<path d="M12.4921 7.06163H8.02539V6.33496H12.4921C12.6721 6.33496 12.8121 6.48163 12.8121 6.65496V6.74163C12.8121 6.92163 12.6654 7.06163 12.4921 7.06163Z" fill="#190602"/>
<path d="M12.4921 10.5079H8.02539V9.78125H12.4921C12.6721 9.78125 12.8121 9.92792 12.8121 10.1013V10.1879C12.8121 10.3613 12.6654 10.5079 12.4921 10.5079Z" fill="#190602"/>
<path d="M13.2652 8.78819H8.01855V8.06152H13.2652C13.4452 8.06152 13.5852 8.20819 13.5852 8.38152V8.46819C13.5919 8.64152 13.4452 8.78819 13.2652 8.78819Z" fill="#190602"/>
</g>
<defs>
<clipPath id="clip0_4642_2547">
<rect width="20" height="20" rx="10" fill="white"/>
</clipPath>
</defs>
</svg>
