<svg width="20" height="20" viewBox="0 0 20 20" fill="none" xmlns="http://www.w3.org/2000/svg">
<rect width="20" height="20" fill="black"/>
<path d="M4.57031 5.14355V14.8872H13.5913V13.795H5.65064V6.23568H13.5913V5.14355H4.57031Z" fill="white"/>
<path d="M14.4873 8.88814C14.4873 8.65663 14.3977 8.45531 14.2184 8.28423C14.0392 8.11308 13.7903 8.02751 13.4667 8.02751C13.1929 8.02751 12.9788 8.08288 12.8195 8.19865C12.6602 8.3144 12.5805 8.4654 12.5805 8.65663C12.5805 8.75728 12.6004 8.84788 12.6402 8.9284C12.6801 9.00894 12.7448 9.0794 12.8394 9.14482C12.934 9.21025 13.0584 9.26563 13.2178 9.31594C13.3721 9.36625 13.5712 9.41157 13.8102 9.45685C14.4126 9.5676 14.8706 9.7538 15.1892 10.0105C15.5078 10.2722 15.6672 10.6547 15.6672 11.163V11.2637C15.6672 11.5354 15.6174 11.777 15.5228 11.9985C15.4282 12.2149 15.2888 12.4011 15.1096 12.5571C14.9303 12.7131 14.7113 12.8289 14.4524 12.9144C14.1935 12.9949 13.9048 13.0402 13.5812 13.0402C13.2028 13.0402 12.8742 12.9849 12.5855 12.8792C12.2968 12.7735 12.0578 12.6225 11.8686 12.4313C11.6794 12.24 11.5301 12.0186 11.4355 11.7619C11.3359 11.5052 11.2861 11.2234 11.2861 10.9214V10.8711H12.3664C12.3664 11.2183 12.466 11.4952 12.6652 11.7065C12.8643 11.9129 13.173 12.0186 13.5961 12.0186C13.9247 12.0186 14.1686 11.9481 14.328 11.8022C14.4873 11.6562 14.5669 11.4851 14.5669 11.2888C14.5669 11.1932 14.552 11.1076 14.5171 11.0171C14.4823 10.9315 14.4275 10.856 14.3429 10.7855C14.2632 10.7151 14.1487 10.6547 14.0044 10.5993C13.86 10.5439 13.6808 10.4987 13.4617 10.4584C13.173 10.4081 12.9091 10.3427 12.6652 10.2621C12.4262 10.1816 12.2171 10.0759 12.0379 9.94503C11.8586 9.81417 11.7242 9.64808 11.6247 9.4468C11.5251 9.24545 11.4753 9.00391 11.4753 8.71703V8.66671C11.4753 8.43014 11.5251 8.20871 11.6197 8.0074C11.7143 7.80607 11.8487 7.62993 12.0229 7.47895C12.1972 7.32796 12.4013 7.21221 12.6452 7.13168C12.8892 7.05115 13.158 7.00586 13.4617 7.00586C13.8002 7.00586 14.099 7.05619 14.3628 7.15181C14.6267 7.24744 14.8457 7.37829 15.0249 7.54437C15.2042 7.71046 15.3236 7.90675 15.4282 8.11811C15.5576 8.3748 15.5626 8.8982 15.5626 8.8982L14.4873 8.88814Z" fill="white"/>
</svg>
