<svg width="20" height="20" viewBox="0 0 20 20" fill="none" xmlns="http://www.w3.org/2000/svg">
<rect width="20" height="20" fill="black"/>
<g clip-path="url(#clip0_4963_746)">
<path d="M16.9289 13.4611L14.6178 15.8366C14.5675 15.8882 14.5067 15.9293 14.4392 15.9574C14.3716 15.9855 14.2988 16 14.2251 16H3.26928C3.217 16 3.16587 15.9854 3.12215 15.9579C3.07844 15.9304 3.04405 15.8913 3.02321 15.8454C3.00238 15.7994 2.996 15.7486 3.00486 15.6993C3.01373 15.6499 3.03745 15.6041 3.07311 15.5674L5.38598 13.192C5.43609 13.1405 5.49668 13.0995 5.564 13.0714C5.63134 13.0433 5.70397 13.0287 5.77743 13.0286H16.7327C16.7849 13.0286 16.8361 13.0432 16.8798 13.0707C16.9235 13.0982 16.9579 13.1373 16.9788 13.1832C16.9996 13.2292 17.006 13.2799 16.9971 13.3293C16.9882 13.3787 16.9645 13.4245 16.9289 13.4611ZM14.6178 8.67771C14.5675 8.62611 14.5067 8.58497 14.4392 8.55685C14.3716 8.52875 14.2988 8.51425 14.2251 8.51429H3.26928C3.217 8.51429 3.16587 8.52892 3.12215 8.5564C3.07844 8.58388 3.04405 8.62299 3.02321 8.66893C3.00238 8.71488 2.996 8.76566 3.00486 8.81504C3.01373 8.8644 3.03745 8.91022 3.07311 8.94686L5.38598 11.3223C5.43609 11.3738 5.49668 11.4148 5.564 11.4429C5.63134 11.471 5.70397 11.4856 5.77743 11.4857H16.7327C16.7849 11.4857 16.8361 11.4711 16.8798 11.4436C16.9235 11.4161 16.9579 11.377 16.9788 11.3311C16.9996 11.2851 17.006 11.2343 16.9971 11.185C16.9882 11.1356 16.9645 11.0898 16.9289 11.0531L14.6178 8.67771ZM3.26928 6.97143H14.2251C14.2988 6.97146 14.3716 6.95698 14.4392 6.92886C14.5067 6.90074 14.5675 6.8596 14.6178 6.808L16.9289 4.43257C16.9645 4.39594 16.9882 4.35012 16.9971 4.30075C17.006 4.25138 16.9996 4.2006 16.9788 4.15465C16.9579 4.1087 16.9235 4.06959 16.8798 4.04211C16.8361 4.01464 16.7849 4 16.7327 4H5.77743C5.70397 4.00012 5.63134 4.01469 5.564 4.0428C5.49668 4.07091 5.43609 4.11197 5.38598 4.16343L3.07371 6.53886C3.03808 6.57545 3.01437 6.62122 3.00548 6.67053C2.9966 6.71985 3.00293 6.7706 3.02369 6.81652C3.04445 6.86245 3.07875 6.90156 3.12238 6.92908C3.166 6.9566 3.21706 6.97131 3.26928 6.97143Z" fill="url(#paint0_linear_4963_746)"/>
</g>
<defs>
<linearGradient id="paint0_linear_4963_746" x1="4.18274" y1="16.286" x2="15.1282" y2="3.41144" gradientUnits="userSpaceOnUse">
<stop offset="0.08" stop-color="#9945FF"/>
<stop offset="0.3" stop-color="#8752F3"/>
<stop offset="0.5" stop-color="#5497D5"/>
<stop offset="0.6" stop-color="#43B4CA"/>
<stop offset="0.72" stop-color="#28E0B9"/>
<stop offset="0.97" stop-color="#19FB9B"/>
</linearGradient>
<clipPath id="clip0_4963_746">
<rect width="14" height="12" fill="white" transform="translate(3 4)"/>
</clipPath>
</defs>
</svg>
