<svg width="20" height="20" viewBox="0 0 20 20" fill="none" xmlns="http://www.w3.org/2000/svg">
<rect width="20" height="20" fill="black"/>
<mask id="mask0_4648_3921" style="mask-type:luminance" maskUnits="userSpaceOnUse" x="3" y="3" width="14" height="14">
<path d="M3 3H17V17H3V3Z" fill="white"/>
</mask>
<g mask="url(#mask0_4648_3921)">
<path d="M5.92521 9.57476C5.89567 9.62173 5.87925 9.67575 5.87766 9.73122C5.87606 9.78668 5.88936 9.84155 5.91615 9.89014C5.94294 9.93873 5.98226 9.97925 6.03002 10.0075C6.07778 10.0357 6.13223 10.0507 6.18771 10.0508H9.73409C9.76069 10.0506 9.78684 10.0577 9.80981 10.0711C9.83278 10.0845 9.85173 10.1038 9.86468 10.1271C9.87764 10.1503 9.88413 10.1766 9.88347 10.2032C9.88282 10.2298 9.87505 10.2557 9.86096 10.2783L6.38021 15.8511C6.37155 15.8655 6.36008 15.8779 6.34649 15.8877C6.33289 15.8975 6.31746 15.9045 6.30111 15.9082C6.28476 15.9118 6.26784 15.9122 6.25136 15.9091C6.23488 15.9061 6.21918 15.8998 6.20521 15.8905C4.95116 15.0804 3.9886 13.8909 3.45782 12.4955C2.92705 11.1001 2.8558 9.57158 3.25446 8.13282C3.65311 6.69406 4.50084 5.42021 5.6741 4.49694C6.84735 3.57366 8.2848 3.04921 9.77696 3.00001C9.79907 2.9997 9.82085 3.00533 9.84003 3.01633C9.85922 3.02732 9.87509 3.04326 9.88601 3.06249C9.89692 3.08171 9.90246 3.10352 9.90206 3.12563C9.90165 3.14773 9.89532 3.16932 9.88371 3.18814L5.92521 9.57476ZM13.9227 4.19789C13.9089 4.18831 13.8933 4.18166 13.8769 4.17836C13.8604 4.17506 13.8435 4.17518 13.827 4.17871C13.8106 4.18224 13.7951 4.1891 13.7815 4.19887C13.7678 4.20864 13.7563 4.22111 13.7477 4.23551L10.3203 9.72614C10.3063 9.74864 10.2985 9.77449 10.2978 9.80101C10.2971 9.82753 10.3036 9.85375 10.3164 9.87696C10.3293 9.90016 10.3481 9.91951 10.3709 9.93299C10.3938 9.94647 10.4198 9.9536 10.4463 9.95364H13.9927C14.0482 9.95372 14.1026 9.96866 14.1504 9.9969C14.1982 10.0251 14.2375 10.0657 14.2643 10.1143C14.2911 10.1628 14.3044 10.2177 14.3028 10.2732C14.3012 10.3286 14.2848 10.3827 14.2552 10.4296L10.246 16.8504C10.2364 16.8655 10.2312 16.883 10.2308 16.9009C10.2305 16.9187 10.2351 16.9364 10.2442 16.9518C10.2532 16.9673 10.2663 16.9799 10.2821 16.9884C10.2978 16.9969 10.3156 17.0009 10.3335 17C11.8025 16.9288 13.2119 16.3972 14.362 15.4804C15.512 14.5636 16.3445 13.3082 16.7413 11.8919C17.1382 10.4757 17.0793 8.97055 16.5732 7.58964C16.067 6.20873 15.1391 5.02211 13.921 4.19789H13.9227Z" fill="url(#paint0_linear_4648_3921)"/>
</g>
<defs>
<linearGradient id="paint0_linear_4648_3921" x1="9.04546" y1="5.88926" x2="11.5068" y2="16.4645" gradientUnits="userSpaceOnUse">
<stop offset="0.18" stop-color="#00FFD5"/>
<stop offset="0.23" stop-color="#00F8D5"/>
<stop offset="0.31" stop-color="#00E4D5"/>
<stop offset="0.4" stop-color="#00C3D5"/>
<stop offset="0.51" stop-color="#0096D5"/>
<stop offset="0.62" stop-color="#005CD5"/>
<stop offset="0.74" stop-color="#0016D5"/>
<stop offset="0.78" stop-color="#0000D5"/>
</linearGradient>
</defs>
</svg>
