<svg width="20" height="20" viewBox="0 0 20 20" fill="none" xmlns="http://www.w3.org/2000/svg">
<rect width="20" height="20" fill="#0098EA"/>
<path d="M14.0518 4H5.94773C4.45767 4 3.51324 5.60728 4.26289 6.90662L9.26443 15.5755C9.59081 16.1415 10.4087 16.1415 10.7351 15.5755L15.7377 6.90662C16.4863 5.60936 15.5419 4 14.0528 4H14.0518ZM9.26036 12.9758L8.17111 10.8678L5.54286 6.16721C5.36947 5.86635 5.58363 5.48082 5.94671 5.48082H9.25934V12.9768L9.26036 12.9758ZM14.4547 6.1662L11.8274 10.8688L10.7382 12.9758V5.4798H14.0508C14.4139 5.4798 14.628 5.86534 14.4547 6.1662Z" fill="white"/>
</svg>
