<svg width="20" height="20" viewBox="0 0 20 20" fill="none" xmlns="http://www.w3.org/2000/svg">
<rect width="20" height="20" fill="black"/>
<path d="M15.9951 7.23462H13.7019L13.472 8.26332C13.3915 8.62336 13.2336 8.98058 12.9219 9.17783C12.0683 9.71786 11.2322 9.19911 10.8795 8.81276L9.64475 7.91099C8.62667 7.26038 7.68977 7.14061 6.94028 7.24934C5.83377 7.40986 4.88686 8.24836 4.54757 9.31373C4.24596 10.2608 4.06797 11.4562 4 12.1947H6.29318C6.29318 11.4432 6.6107 9.94011 7.88077 9.94011C9.46836 9.94011 10.5267 13.0965 13.3491 12.1947C15.607 11.4732 16.0539 8.58736 15.9951 7.23462Z" fill="white"/>
</svg>
