<svg width="20" height="20" viewBox="0 0 20 20" fill="none" xmlns="http://www.w3.org/2000/svg">
<rect width="20" height="20" fill="#35363A"/>
<path d="M5.88743 10.2986L7.94917 7.68926L6.99583 7.69117H6.72973C6.47704 7.695 6.25881 7.8137 6.07503 8.04726L5.05086 9.35099L4.0267 8.04917C3.83909 7.81178 3.62086 7.695 3.37199 7.695H2.56797C2.43014 7.695 2.36314 7.75244 2.36314 7.8673C2.36314 7.92474 2.38994 7.986 2.44163 8.05109L4.22004 10.3006L2.33825 12.7089C2.28657 12.7759 2.25977 12.8372 2.25977 12.8927C2.27508 13.0057 2.34591 13.0612 2.47034 13.0612H3.26671C3.51557 13.0612 3.7338 12.9444 3.91758 12.7089L5.05661 11.252L6.19946 12.7051C6.38515 12.9387 6.60147 13.0554 6.85034 13.0554L8.05828 13.0535L5.88743 10.2986ZM16.3531 13.0439L17.1839 11.9853L15.1413 11.9872C14.4713 11.9872 14.0138 11.8666 13.7726 11.6215C13.5314 11.3765 13.4088 10.9591 13.4088 10.3676C13.4069 9.776 13.5275 9.35674 13.7707 9.10977C14.0138 8.86281 14.4694 8.74029 15.1394 8.74029L17.2873 8.73837L16.4488 7.67969L15.0954 7.6816C14.0138 7.68352 13.227 7.89985 12.735 8.33251C12.511 8.5297 12.3406 8.78049 12.2181 9.08106C12.354 9.44672 12.421 9.87555 12.423 10.3676C12.4249 10.8596 12.356 11.2884 12.222 11.6541C12.3445 11.9527 12.5149 12.2035 12.7407 12.4007C13.2346 12.8314 14.0214 13.0459 15.103 13.0459L16.3531 13.0439ZM12.0956 9.45437C12.065 9.32802 12.0229 9.20358 11.9731 9.08106C11.8506 8.7824 11.6802 8.5297 11.4543 8.33443C10.9623 7.90176 10.1736 7.68543 9.09202 7.68735L8.23632 7.68926L7.39975 8.74794L9.05182 8.74603C9.72184 8.74603 10.1794 8.86664 10.4206 9.1136C10.6637 9.35865 10.7843 9.77791 10.7843 10.3695C10.7843 10.961 10.6656 11.3803 10.4225 11.6253C10.1794 11.8704 9.72567 11.9929 9.05565 11.9929L7.51078 11.9948L8.34352 13.0516H9.09777C10.1794 13.0497 10.9662 12.8334 11.4601 12.4026C11.684 12.2054 11.8544 11.9546 11.9769 11.656C12.0267 11.5354 12.0669 11.4109 12.0975 11.2827C12.1664 10.9821 12.199 10.6758 12.1971 10.3695C12.199 10.0613 12.1645 9.75494 12.0956 9.45437Z" fill="white"/>
<path d="M6.18457 10.3016L7.2566 11.6609L7.25277 8.94238L6.18457 10.3016Z" fill="white"/>
</svg>
